<svg width="848" height="606" viewBox="0 0 848 606" fill="none" xmlns="http://www.w3.org/2000/svg">
<path d="M848 463.469H0V463.772H848V463.469Z" fill="#EBEBEB"/>
<path d="M763.031 482.97H706.859V483.273H763.031V482.97Z" fill="#EBEBEB"/>
<path d="M561.75 486.267H547.012V486.57H561.75V486.267Z" fill="#EBEBEB"/>
<path d="M705.163 471.723H672.617V472.026H705.163V471.723Z" fill="#EBEBEB"/>
<path d="M162.223 473.759H88.9727V474.062H162.223V473.759Z" fill="#EBEBEB"/>
<path d="M188.068 473.759H177.332V474.062H188.068V473.759Z" fill="#EBEBEB"/>
<path d="M381.854 478.873H222.973V479.176H381.854V478.873Z" fill="#EBEBEB"/>
<path d="M401.953 409.414H74.4719C71.9064 409.41 69.4476 408.68 67.6351 407.382C65.8226 406.085 64.8047 404.327 64.8047 402.493V73.5201C64.827 71.6973 65.8548 69.9543 67.6649 68.6699C69.475 67.3855 71.9211 66.6633 74.4719 66.6602H401.953C404.521 66.6602 406.984 67.3893 408.8 68.6871C410.616 69.985 411.637 71.7452 411.637 73.5807V402.493C411.637 404.329 410.616 406.089 408.8 407.387C406.984 408.685 404.521 409.414 401.953 409.414ZM74.4719 66.9026C72.0189 66.9058 69.6679 67.6044 67.9349 68.8451C66.202 70.0857 65.2287 71.7671 65.2287 73.5201V402.493C65.2287 404.246 66.202 405.928 67.9349 407.168C69.6679 408.409 72.0189 409.108 74.4719 409.111H401.953C404.407 409.108 406.76 408.409 408.495 407.169C410.231 405.929 411.208 404.247 411.213 402.493V73.5201C411.208 71.766 410.231 70.0847 408.495 68.8443C406.76 67.604 404.407 66.9058 401.953 66.9026H74.4719Z" fill="#EBEBEB"/>
<path d="M768.815 409.414H441.317C438.75 409.41 436.289 408.68 434.474 407.383C432.659 406.086 431.637 404.328 431.633 402.493V73.5201C431.66 71.6962 432.691 69.9533 434.504 68.6692C436.317 67.3851 438.765 66.6632 441.317 66.6602H768.815C771.362 66.6665 773.804 67.3901 775.611 68.6742C777.417 69.9583 778.443 71.6994 778.465 73.5201V402.493C778.465 404.324 777.449 406.081 775.64 407.378C773.832 408.675 771.377 409.407 768.815 409.414ZM441.317 66.9026C438.862 66.9058 436.51 67.604 434.774 68.8443C433.038 70.0847 432.061 71.766 432.057 73.5201V402.493C432.061 404.247 433.038 405.929 434.774 407.169C436.51 408.409 438.862 409.108 441.317 409.111H768.815C771.269 409.108 773.622 408.409 775.358 407.169C777.093 405.929 778.07 404.247 778.075 402.493V73.5201C778.07 71.766 777.093 70.0847 775.358 68.8443C773.622 67.604 771.269 66.9058 768.815 66.9026H441.317Z" fill="#EBEBEB"/>
<path d="M608.879 287.862H571.059V299.364H608.879V287.862Z" fill="#FAFAFA"/>
<path d="M563.122 287.862H525.301V299.364H563.122V287.862Z" fill="#FAFAFA"/>
<path d="M517.364 287.862H479.543V299.364H517.364V287.862Z" fill="#FAFAFA"/>
<path d="M631.758 303.873H593.938V315.375H631.758V303.873Z" fill="#FAFAFA"/>
<path d="M586 303.873H548.18V315.375H586V303.873Z" fill="#FAFAFA"/>
<path d="M540.243 303.873H502.422V315.375H540.243V303.873Z" fill="#FAFAFA"/>
<path d="M494.485 303.873H456.664V315.375H494.485V303.873Z" fill="#FAFAFA"/>
<path d="M705.52 319.884H667.699V331.386H705.52V319.884Z" fill="#FAFAFA"/>
<path d="M659.762 319.884H621.941V331.386H659.762V319.884Z" fill="#FAFAFA"/>
<path d="M563.122 319.884H525.301V331.386H563.122V319.884Z" fill="#FAFAFA"/>
<path d="M517.364 319.884H479.543V331.386H517.364V319.884Z" fill="#FAFAFA"/>
<path d="M471.606 319.884H433.785V331.386H471.606V319.884Z" fill="#FAFAFA"/>
<path d="M682.641 335.882H644.82V347.384H682.641V335.882Z" fill="#FAFAFA"/>
<path d="M586 335.882H548.18V347.384H586V335.882Z" fill="#FAFAFA"/>
<path d="M540.243 335.882H502.422V347.384H540.243V335.882Z" fill="#FAFAFA"/>
<path d="M494.485 335.882H456.664V347.384H494.485V335.882Z" fill="#FAFAFA"/>
<path d="M315.981 124.788H278.16V136.29H315.981V124.788Z" fill="#FAFAFA"/>
<path d="M270.223 124.788H232.402V136.29H270.223V124.788Z" fill="#FAFAFA"/>
<path d="M338.86 140.798H301.039V152.3H338.86V140.798Z" fill="#FAFAFA"/>
<path d="M293.102 140.798H255.281V152.3H293.102V140.798Z" fill="#FAFAFA"/>
<path d="M201.586 140.798H163.766V152.3H201.586V140.798Z" fill="#FAFAFA"/>
<path d="M155.829 140.798H118.008V152.3H155.829V140.798Z" fill="#FAFAFA"/>
<path d="M270.223 156.809H232.402V168.31H270.223V156.809Z" fill="#FAFAFA"/>
<path d="M686.778 218.476H648.957V229.977H686.778V218.476Z" fill="#FAFAFA"/>
<path d="M607.102 218.476H569.281V229.977H607.102V218.476Z" fill="#FAFAFA"/>
<path d="M709.672 234.485H671.852V245.987H709.672V234.485Z" fill="#FAFAFA"/>
<path d="M663.899 234.485H626.078V245.987H663.899V234.485Z" fill="#FAFAFA"/>
<path d="M273.461 202.331H235.641V213.833H273.461V202.331Z" fill="#FAFAFA"/>
<path d="M176.809 202.331H138.988V213.833H176.809V202.331Z" fill="#FAFAFA"/>
<path d="M296.34 218.33H258.52V229.832H296.34V218.33Z" fill="#FAFAFA"/>
<path d="M233.606 218.33H195.785V229.832H233.606V218.33Z" fill="#FAFAFA"/>
<path d="M686.778 250.496H648.957V261.998H686.778V250.496Z" fill="#FAFAFA"/>
<path d="M607.102 250.496H569.281V261.998H607.102V250.496Z" fill="#FAFAFA"/>
<path d="M178.708 156.809H140.887V168.31H178.708V156.809Z" fill="#FAFAFA"/>
<path d="M714.508 125.224H676.688V136.726H714.508V125.224Z" fill="#FAFAFA"/>
<path d="M668.75 125.224H630.93V136.726H668.75V125.224Z" fill="#FAFAFA"/>
<path d="M691.629 141.223H653.809V152.725H691.629V141.223Z" fill="#FAFAFA"/>
<path d="M509.512 125.479H471.691V136.98H509.512V125.479Z" fill="#FAFAFA"/>
<path d="M463.754 125.479H425.934V136.98H463.754V125.479Z" fill="#FAFAFA"/>
<path d="M532.391 141.477H494.57V152.978H532.391V141.477Z" fill="#FAFAFA"/>
<path d="M486.633 141.477H448.812V152.978H486.633V141.477Z" fill="#FAFAFA"/>
<path d="M440.876 141.477H403.055V152.978H440.876V141.477Z" fill="#FAFAFA"/>
<path d="M555.27 157.487H517.449V168.989H555.27V157.487Z" fill="#FAFAFA"/>
<path d="M509.512 157.487H471.691V168.989H509.512V157.487Z" fill="#FAFAFA"/>
<path d="M463.754 157.487H425.934V168.989H463.754V157.487Z" fill="#FAFAFA"/>
<path d="M532.391 173.498H494.57V185H532.391V173.498Z" fill="#FAFAFA"/>
<path d="M486.633 173.498H448.812V185H486.633V173.498Z" fill="#FAFAFA"/>
<path d="M224.821 283.523H187V295.025H224.821V283.523Z" fill="#FAFAFA"/>
<path d="M179.047 283.523H141.227V295.025H179.047V283.523Z" fill="#FAFAFA"/>
<path d="M356.196 284.978H318.375V296.479H356.196V284.978Z" fill="#FAFAFA"/>
<path d="M247.7 299.521H209.879V311.023H247.7V299.521Z" fill="#FAFAFA"/>
<path d="M201.926 299.521H164.105V311.023H201.926V299.521Z" fill="#FAFAFA"/>
<path d="M379.075 300.988H341.254V312.49H379.075V300.988Z" fill="#FAFAFA"/>
<path d="M333.297 300.988H295.477V312.49H333.297V300.988Z" fill="#FAFAFA"/>
<path d="M454.731 249.236H416.91V260.738H454.731V249.236Z" fill="#FAFAFA"/>
<path d="M217.477 241.624H179.656V253.126H217.477V241.624Z" fill="#FAFAFA"/>
<path d="M403.157 192.478H365.336V203.979H403.157V192.478Z" fill="#FAFAFA"/>
<path d="M431.852 233.237H394.031V244.739H431.852V233.237Z" fill="#FAFAFA"/>
<path d="M477.61 233.237H439.789V244.739H477.61V233.237Z" fill="#FAFAFA"/>
<path d="M649.399 451.749H611.578V463.251H649.399V451.749Z" fill="#FAFAFA"/>
<path d="M672.278 435.751H634.457V447.253H672.278V435.751Z" fill="#FAFAFA"/>
<path d="M224.821 315.532H187V327.034H224.821V315.532Z" fill="#FAFAFA"/>
<path d="M179.047 315.532H141.227V327.034H179.047V315.532Z" fill="#FAFAFA"/>
<path d="M247.7 331.543H209.879V343.045H247.7V331.543Z" fill="#FAFAFA"/>
<path d="M201.926 331.543H164.105V343.045H201.926V331.543Z" fill="#FAFAFA"/>
<path d="M296.629 375.817H258.809V387.319H296.629V375.817Z" fill="#FAFAFA"/>
<path d="M250.872 375.817H213.051V387.319H250.872V375.817Z" fill="#FAFAFA"/>
<path d="M205.098 375.817H167.277V387.319H205.098V375.817Z" fill="#FAFAFA"/>
<path d="M159.34 375.817H121.52V387.319H159.34V375.817Z" fill="#FAFAFA"/>
<path d="M319.508 391.828H281.688V403.33H319.508V391.828Z" fill="#FAFAFA"/>
<path d="M273.75 391.828H235.93V403.33H273.75V391.828Z" fill="#FAFAFA"/>
<path d="M182.219 391.828H144.398V403.33H182.219V391.828Z" fill="#FAFAFA"/>
<path d="M342.387 407.826H304.566V419.328H342.387V407.826Z" fill="#FAFAFA"/>
<path d="M296.629 407.826H258.809V419.328H296.629V407.826Z" fill="#FAFAFA"/>
<path d="M250.872 407.826H213.051V419.328H250.872V407.826Z" fill="#FAFAFA"/>
<path d="M319.508 423.837H281.688V435.339H319.508V423.837Z" fill="#FAFAFA"/>
<path d="M273.75 423.837H235.93V435.339H273.75V423.837Z" fill="#FAFAFA"/>
<path d="M227.993 423.837H190.172V435.339H227.993V423.837Z" fill="#FAFAFA"/>
<path d="M606.2 375.078H568.379V386.58H606.2V375.078Z" fill="#FAFAFA"/>
<path d="M509.563 375.078H471.742V386.58H509.563V375.078Z" fill="#FAFAFA"/>
<path d="M463.805 375.078H425.984V386.58H463.805V375.078Z" fill="#FAFAFA"/>
<path d="M629.098 391.088H591.277V402.59H629.098V391.088Z" fill="#FAFAFA"/>
<path d="M532.442 391.088H494.621V402.59H532.442V391.088Z" fill="#FAFAFA"/>
<path d="M486.684 391.088H448.863V402.59H486.684V391.088Z" fill="#FAFAFA"/>
<path d="M440.926 391.088H403.105V402.59H440.926V391.088Z" fill="#FAFAFA"/>
<path d="M651.977 407.087H614.156V418.589H651.977V407.087Z" fill="#FAFAFA"/>
<path d="M606.2 407.087H568.379V418.589H606.2V407.087Z" fill="#FAFAFA"/>
<path d="M509.563 407.087H471.742V418.589H509.563V407.087Z" fill="#FAFAFA"/>
<path d="M463.805 407.087H425.984V418.589H463.805V407.087Z" fill="#FAFAFA"/>
<path d="M578.2 423.098H540.379V434.6H578.2V423.098Z" fill="#FAFAFA"/>
<path d="M532.442 423.098H494.621V434.6H532.442V423.098Z" fill="#FAFAFA"/>
<path d="M486.684 423.098H448.863V434.6H486.684V423.098Z" fill="#FAFAFA"/>
<path d="M440.926 423.098H403.105V434.6H440.926V423.098Z" fill="#FAFAFA"/>
<path d="M524.114 321.531H687.473V188.005L524.114 188.005V321.531Z" fill="#E0E0E0"/>
<path d="M524.422 321.531H681.488V188.005H524.422V321.531Z" fill="#E0E0E0"/>
<path d="M519.008 321.531H682.367V188.005L519.008 188.005V321.531Z" fill="#F0F0F0"/>
<path d="M526.439 315.387H675.246V192.248H526.439V315.387Z" fill="white"/>
<path d="M526.439 315.387H531.086V192.248H526.439V315.387Z" fill="#E0E0E0"/>
<path d="M530.594 280.808V284.129H675.67V280.808H530.594Z" fill="#E0E0E0"/>
<path d="M526.438 280.796H677.738V275.221H526.438V280.796Z" fill="#F0F0F0"/>
<path d="M179.606 321.531H342.965V188.005L179.606 188.005L179.606 321.531Z" fill="#E0E0E0"/>
<path d="M179.93 321.531H336.996V188.005H179.93L179.93 321.531Z" fill="#E0E0E0"/>
<path d="M174.52 321.531H337.879V188.005L174.52 188.005L174.52 321.531Z" fill="#F0F0F0"/>
<path d="M181.931 315.387H330.738V192.248H181.931L181.931 315.387Z" fill="white"/>
<path d="M181.931 315.387H186.578L186.578 192.248H181.931L181.931 315.387Z" fill="#E0E0E0"/>
<path d="M186.086 280.796V284.117H331.162V280.796H186.086Z" fill="#E0E0E0"/>
<path d="M181.93 280.796H333.23V275.221H181.93V280.796Z" fill="#F0F0F0"/>
<path d="M424.001 518.202C605.613 518.202 752.839 512.06 752.839 504.483C752.839 496.905 605.613 490.763 424.001 490.763C242.39 490.763 95.1641 496.905 95.1641 504.483C95.1641 512.06 242.39 518.202 424.001 518.202Z" fill="#F5F5F5"/>
<path d="M151.59 473.177C151.59 473.177 149.249 460.851 138.208 459.506C127.167 458.161 130.491 452.234 127.625 449.883C124.759 447.532 117.246 454.379 123.674 460.985C130.101 467.59 124.844 465.506 127.625 471.638C130.407 477.771 152.641 483.407 151.59 473.177Z" fill="#26382B"/>
<path opacity="0.2" d="M151.59 473.177C151.59 473.177 149.249 460.851 138.208 459.506C127.167 458.161 130.491 452.234 127.625 449.883C124.759 447.532 117.246 454.379 123.674 460.985C130.101 467.59 124.844 465.506 127.625 471.638C130.407 477.771 152.641 483.407 151.59 473.177Z" fill="white"/>
<path d="M151.131 481.734C150.987 481.736 150.846 481.708 150.722 481.655C150.599 481.601 150.5 481.524 150.436 481.431C150.436 481.298 141.956 468.475 146.366 448.041C147.793 442.196 150.067 436.473 153.15 430.964C158.492 420.565 162.698 412.347 153.065 397.343C150.012 392.592 146.891 388.168 143.873 383.89C132.543 367.818 123.605 355.129 130.305 342.27C130.377 342.135 130.521 342.026 130.705 341.967C130.89 341.908 131.099 341.903 131.288 341.954C131.384 341.976 131.473 342.011 131.548 342.059C131.624 342.106 131.685 342.164 131.728 342.228C131.771 342.293 131.795 342.364 131.798 342.436C131.801 342.507 131.783 342.579 131.746 342.645C125.318 355.056 134.138 367.564 145.314 383.393C148.333 387.683 151.454 392.119 154.523 396.882C164.428 412.299 159.9 421.122 154.659 431.339C151.57 436.776 149.296 442.431 147.875 448.21C143.516 468.281 151.742 480.825 151.827 480.934C151.914 481.065 151.926 481.214 151.859 481.351C151.792 481.487 151.653 481.599 151.471 481.662C151.366 481.703 151.251 481.728 151.131 481.734Z" fill="#26382B"/>
<path d="M144.77 478.741C144.77 478.741 137.63 471.057 147.925 467.105C158.22 463.154 160.289 466.342 166.581 463.469C172.873 460.597 177.775 453.773 178.86 458.149C179.945 462.524 172.602 465.069 175.197 467.081C177.791 469.093 157.948 482.183 144.77 478.741Z" fill="#26382B"/>
<path d="M127.93 348.875C127.93 348.875 120.993 333.785 136.8 333.47C152.606 333.155 135.172 347.263 127.93 348.875Z" fill="#26382B"/>
<path d="M141.668 360.486C141.668 360.486 146.383 346.754 157.593 349.65C168.804 352.547 152.845 360.74 141.668 360.486Z" fill="#26382B"/>
<path d="M122.638 361.673C122.638 361.673 124.334 350.765 112.462 350.499C100.59 350.232 105.814 359.964 122.638 361.673Z" fill="#26382B"/>
<path d="M130.592 384.011C130.592 384.011 114.616 373.83 108.866 381.405C103.117 388.98 120.891 390.556 130.592 384.011Z" fill="#26382B"/>
<path d="M158.812 382.205C158.812 382.205 161.814 365.237 174.721 370.606C187.628 375.975 170.057 383.901 158.812 382.205Z" fill="#26382B"/>
<path d="M170.179 406.408C170.179 406.408 160.648 389.331 178.354 391.258C196.06 393.185 182.679 402.263 170.179 406.408Z" fill="#26382B"/>
<path d="M143.008 412.504C143.008 412.504 128.066 399.96 116.635 403.911C105.204 407.863 114.549 420.407 143.008 412.504Z" fill="#26382B"/>
<path d="M156.574 440.393C156.574 440.393 169.311 420.177 180.64 426.988C191.97 433.8 173.415 443.98 156.574 440.393Z" fill="#26382B"/>
<path d="M138.072 439.205C138.072 439.205 141.464 423.522 128.829 424.782C116.194 426.043 119.535 435.642 138.072 439.205Z" fill="#26382B"/>
<g opacity="0.2">
<path d="M127.93 348.875C127.93 348.875 120.993 333.785 136.8 333.47C152.606 333.155 135.172 347.263 127.93 348.875Z" fill="white"/>
<path d="M141.668 360.486C141.668 360.486 146.383 346.754 157.593 349.65C168.804 352.547 152.845 360.74 141.668 360.486Z" fill="white"/>
<path d="M122.638 361.673C122.638 361.673 124.334 350.765 112.462 350.499C100.59 350.232 105.814 359.964 122.638 361.673Z" fill="white"/>
<path d="M130.592 384.011C130.592 384.011 114.616 373.83 108.866 381.405C103.117 388.98 120.891 390.556 130.592 384.011Z" fill="white"/>
<path d="M158.812 382.205C158.812 382.205 161.814 365.237 174.721 370.606C187.628 375.975 170.057 383.901 158.812 382.205Z" fill="white"/>
<path d="M170.179 406.408C170.179 406.408 160.648 389.331 178.354 391.258C196.06 393.185 182.679 402.263 170.179 406.408Z" fill="white"/>
<path d="M143.008 412.504C143.008 412.504 128.066 399.96 116.635 403.911C105.204 407.863 114.549 420.407 143.008 412.504Z" fill="white"/>
<path d="M156.574 440.393C156.574 440.393 169.311 420.177 180.64 426.988C191.97 433.8 173.415 443.98 156.574 440.393Z" fill="white"/>
<path d="M138.072 439.205C138.072 439.205 141.464 423.522 128.829 424.782C116.194 426.043 119.535 435.642 138.072 439.205Z" fill="white"/>
</g>
<path d="M134.781 369.564C134.652 369.564 134.525 369.543 134.408 369.503C125.046 365.758 118.313 358.68 118.042 358.389C117.984 358.329 117.944 358.262 117.923 358.192C117.902 358.121 117.901 358.048 117.92 357.977C117.939 357.906 117.977 357.838 118.033 357.778C118.089 357.717 118.161 357.666 118.245 357.625C118.415 357.545 118.621 357.516 118.821 357.543C119.02 357.57 119.197 357.652 119.314 357.771C123.379 361.932 128.526 365.496 134.476 368.267C135.901 366.376 141.039 359.855 145.33 358.013C145.504 357.938 145.712 357.914 145.909 357.948C146.006 357.965 146.098 357.996 146.18 358.038C146.261 358.08 146.33 358.134 146.382 358.195C146.434 358.256 146.469 358.324 146.485 358.395C146.5 358.466 146.496 358.539 146.472 358.608C146.449 358.678 146.406 358.744 146.347 358.802C146.288 358.86 146.213 358.909 146.127 358.946C141.565 360.898 135.511 369.188 135.46 369.273C135.412 369.337 135.347 369.393 135.268 369.439C135.19 369.485 135.099 369.519 135.002 369.539C134.931 369.558 134.856 369.566 134.781 369.564Z" fill="#26382B"/>
<path d="M149.248 390.543C149.082 390.546 148.92 390.507 148.79 390.434C135.477 383.247 118.466 383.55 118.262 383.55C118.06 383.547 117.867 383.491 117.72 383.393C117.573 383.294 117.482 383.16 117.465 383.016C117.463 382.945 117.48 382.873 117.517 382.807C117.553 382.74 117.607 382.679 117.677 382.627C117.746 382.575 117.829 382.534 117.92 382.505C118.012 382.476 118.111 382.46 118.211 382.459C118.381 382.459 135.358 382.144 148.994 389.198C150.774 387.173 157.609 379.817 166.395 376.12C166.57 376.046 166.779 376.025 166.977 376.061C167.174 376.098 167.343 376.189 167.446 376.314C167.55 376.439 167.579 376.589 167.528 376.73C167.477 376.871 167.35 376.991 167.175 377.065C157.491 381.138 149.943 390.179 149.876 390.276C149.82 390.341 149.746 390.397 149.658 390.441C149.571 390.485 149.471 390.515 149.367 390.531L149.248 390.543Z" fill="#26382B"/>
<path d="M158.493 418.262C158.357 418.263 158.222 418.238 158.103 418.189C157.917 418.104 138.464 410.117 124.404 409.923C124.219 409.904 124.05 409.837 123.928 409.736C123.805 409.635 123.738 409.506 123.738 409.372C123.738 409.238 123.805 409.109 123.928 409.008C124.05 408.907 124.219 408.84 124.404 408.821C137.802 409.014 155.254 415.79 158.324 417.05C167.346 411.608 174.521 398.264 174.588 398.131C174.62 398.06 174.672 397.996 174.74 397.94C174.808 397.884 174.891 397.839 174.985 397.807C175.078 397.775 175.179 397.757 175.283 397.754C175.386 397.751 175.489 397.763 175.586 397.79C175.683 397.816 175.771 397.856 175.845 397.907C175.919 397.959 175.978 398.02 176.018 398.089C176.058 398.157 176.078 398.23 176.077 398.304C176.076 398.378 176.055 398.451 176.013 398.519C175.708 399.088 168.415 412.675 158.883 418.141C158.771 418.205 158.636 418.247 158.493 418.262Z" fill="#26382B"/>
<path d="M147.229 446.913C147.092 446.912 146.958 446.887 146.839 446.841C139.495 443.835 129.997 430.685 129.607 430.127C129.513 429.999 129.494 429.849 129.554 429.71C129.615 429.571 129.75 429.455 129.93 429.388C130.11 429.32 130.32 429.307 130.514 429.35C130.708 429.393 130.87 429.49 130.964 429.618C130.964 429.752 140.139 442.344 147.042 445.641C152.661 440.952 160.097 437.557 168.412 435.884C168.605 435.843 168.814 435.858 168.992 435.926C169.17 435.994 169.303 436.11 169.362 436.248C169.42 436.388 169.4 436.538 169.305 436.668C169.209 436.797 169.047 436.894 168.853 436.939C160.634 438.565 153.307 441.948 147.856 446.635C147.791 446.714 147.7 446.781 147.59 446.829C147.481 446.878 147.357 446.907 147.229 446.913Z" fill="#26382B"/>
<path d="M145.857 476.898C145.857 476.898 139.734 469.941 132.832 468.948C125.929 467.954 122.944 462.269 120.4 465.687C117.856 469.105 124.877 480.449 145.857 476.898Z" fill="#26382B"/>
<path d="M120.944 504.204H171.96L175.369 474.765H117.535L120.944 504.204Z" fill="#03C365"/>
<path d="M116.33 480.34H176.555L177.335 474.099H115.566L116.33 480.34Z" fill="#03C365"/>
<path opacity="0.3" d="M116.33 480.34H176.555L177.335 474.099H115.566L116.33 480.34Z" fill="white"/>
<path d="M475.678 252.605L473.1 252.956C472.898 252.966 472.696 252.933 472.519 252.862C472.343 252.791 472.199 252.684 472.107 252.554C472.015 252.425 471.978 252.28 472.001 252.136C472.023 251.991 472.105 251.855 472.235 251.744H472.337C471.608 251.974 470.878 252.205 470.115 252.411C470.053 253.218 470.053 254.027 470.115 254.835L486.753 316.332L424.781 324.913C424.799 325.001 424.799 325.091 424.781 325.179C424.755 325.371 424.626 325.548 424.42 325.673C424.214 325.797 423.948 325.859 423.679 325.846C422.678 325.713 421.661 325.579 420.643 325.482L338.59 336.851C338.576 336.954 338.53 337.053 338.455 337.142C338.145 337.514 337.799 337.87 337.42 338.208C337.468 338.425 337.433 338.647 337.318 338.851C336.684 340.211 335.86 341.522 334.859 342.765C334.535 343.093 334.051 343.322 333.502 343.408C333.145 343.461 332.775 343.44 332.434 343.347C332.045 343.946 331.76 344.577 331.586 345.226L463.06 327.046L463.179 326.937C463.945 326.42 464.853 326.023 465.846 325.77C466.839 325.518 467.894 325.415 468.945 325.47C469.693 324.844 470.581 324.312 471.574 323.894C472.021 323.685 472.535 323.558 473.068 323.526C473.601 323.494 474.137 323.558 474.627 323.713C475.278 323.988 475.775 324.417 476.034 324.925C477.329 324.811 478.631 324.747 479.935 324.731L498.591 322.137L480.359 254.956C478.554 254.457 476.947 253.649 475.678 252.605Z" fill="#FF3131"/>
<path d="M305.722 164.723L306.332 164.808L318.594 163.111C319.951 162.687 321.291 162.238 322.597 161.838C325.064 161.005 327.716 160.484 330.432 160.299C332.052 160.246 333.671 160.418 335.198 160.808L440.656 146.203L450.441 182.248C450.555 182.133 450.713 182.043 450.896 181.989C451.079 181.936 451.28 181.921 451.474 181.946C451.669 181.972 451.849 182.037 451.994 182.133C452.138 182.23 452.241 182.354 452.29 182.491C452.859 184.076 453.166 185.703 453.206 187.339C453.153 188.124 452.9 188.896 452.46 189.617L469.097 250.981C470.098 250.714 471.082 250.423 472.065 250.108C472.163 249.686 472.381 249.282 472.704 248.921C473.028 248.561 473.451 248.251 473.948 248.011C474.658 247.771 475.468 247.728 476.221 247.89C476.612 247.254 476.897 246.587 477.069 245.903C477.307 245.069 477.415 244.22 477.391 243.369L476.729 240.885C476.729 240.752 476.577 240.63 476.492 240.509C476.422 240.416 476.386 240.312 476.386 240.206C476.386 240.1 476.422 239.996 476.492 239.903L458.989 175.401C458.888 175.412 458.785 175.412 458.684 175.401C458.071 175.447 457.452 175.374 456.893 175.188C456.335 175.002 455.857 174.711 455.512 174.346C455.03 173.639 454.881 172.84 455.088 172.068C455.258 171.159 455.58 170.262 455.835 169.365C456.108 168.573 456.188 167.753 456.072 166.941C456.031 166.804 456.051 166.661 456.131 166.532C456.21 166.404 456.344 166.297 456.513 166.226L448.745 137.61L296.665 158.772C293.841 159.946 290.621 160.545 287.354 160.505C287.2 160.498 287.05 160.463 286.92 160.404C286.789 160.345 286.682 160.263 286.608 160.166L211.153 170.625C211.108 170.765 211.01 170.894 210.87 170.997C210.729 171.1 210.551 171.172 210.356 171.207L206.387 171.752C206.371 172.183 206.189 172.603 205.861 172.964C205.834 173.134 205.719 173.289 205.539 173.401C205.279 173.553 205.029 173.715 204.793 173.886C204.335 174.189 203.894 174.516 203.419 174.807C203.258 174.917 203.059 174.997 202.842 175.037C202.666 175.059 202.484 175.048 202.315 175.006C202.146 174.963 201.994 174.89 201.876 174.795C201.7 174.646 201.61 174.455 201.621 174.261C201.612 174.193 201.612 174.124 201.621 174.055C201.011 174.055 200.4 174.055 199.807 173.946C199.54 173.925 199.294 173.831 199.121 173.685C198.948 173.538 198.859 173.35 198.874 173.158C198.895 172.967 199.022 172.79 199.225 172.666C199.428 172.541 199.692 172.478 199.959 172.492C200.6 172.558 201.245 172.595 201.893 172.601H202.401C202.475 172.607 202.549 172.607 202.622 172.601C202.123 172.55 201.666 172.374 201.333 172.104C201.328 172.072 201.328 172.039 201.333 172.007L157.644 178.067C157.846 178.069 158.044 178.106 158.221 178.176C158.439 178.286 158.589 178.452 158.64 178.64C158.69 178.827 158.637 179.022 158.492 179.182C158.142 179.514 157.751 179.822 157.322 180.103L157.203 180.2C157.203 180.139 157.305 180.2 157.203 180.2C157.13 180.262 157.062 180.326 156.999 180.394C156.999 180.394 156.999 180.491 156.999 180.527C156.992 180.567 156.992 180.608 156.999 180.648C156.992 180.672 156.992 180.697 156.999 180.721C156.977 180.846 156.912 180.965 156.809 181.066C156.706 181.168 156.569 181.25 156.41 181.304C156.252 181.359 156.077 181.384 155.901 181.377C155.725 181.37 155.555 181.332 155.405 181.267C155.315 181.232 155.218 181.207 155.117 181.194C155.012 181.164 154.904 181.14 154.795 181.121C154.798 181.463 154.669 181.798 154.422 182.091C154.325 182.191 154.192 182.272 154.037 182.323C153.881 182.374 153.71 182.394 153.54 182.382C153.369 183.064 153.049 183.722 152.59 184.333C152.078 184.957 151.384 185.494 150.555 185.909C150.719 186.066 150.855 186.237 150.962 186.418L215.919 177.425V177.352C216.194 177.022 216.55 176.731 216.97 176.491C217.249 176.344 217.571 176.244 217.912 176.2C218.253 176.156 218.604 176.168 218.937 176.237C219.471 176.355 219.97 176.539 220.413 176.782L304.518 165.135C304.615 164.974 304.791 164.844 305.012 164.768C305.233 164.692 305.485 164.676 305.722 164.723Z" fill="#FF3131"/>
<path d="M192.614 357.103L177.35 300.927C177.216 301.036 177.039 301.114 176.843 301.151C176.646 301.187 176.439 301.181 176.248 301.133C175.994 301.07 175.786 300.937 175.668 300.765C175.551 300.592 175.533 300.393 175.62 300.212C175.874 299.679 176.259 299.182 176.756 298.745L156.761 224.922L156.574 224.692C156.167 224.093 155.876 223.457 155.709 222.801C155.359 222.783 155.008 222.783 154.658 222.801C154.504 222.82 154.346 222.813 154.197 222.782C154.047 222.751 153.909 222.696 153.793 222.621C153.677 222.547 153.587 222.455 153.528 222.351C153.469 222.248 153.444 222.137 153.453 222.026C153.433 220.627 153.937 219.251 154.912 218.038L146.805 188.175C146.67 188.015 146.551 187.849 146.449 187.678L146.042 187.132C145.875 187.129 145.713 187.094 145.573 187.03C145.432 186.966 145.319 186.875 145.245 186.769C145.127 186.596 145.109 186.398 145.195 186.216C145.28 186.035 145.463 185.885 145.703 185.799C146.126 185.681 146.513 185.504 146.839 185.278C147.07 185.09 147.259 184.877 147.399 184.648C147.665 184.135 147.809 183.594 147.823 183.048C147.568 182.801 147.384 182.521 147.28 182.224C147.203 181.817 147.255 181.402 147.433 181.012C147.468 180.909 147.545 180.817 147.653 180.745C147.653 180.284 147.551 179.824 147.517 179.363L134.543 181.157L171.567 317.652C171.751 317.582 171.966 317.562 172.17 317.598C172.374 317.634 172.551 317.722 172.669 317.846C173.628 318.588 174.155 319.563 174.145 320.573C174.094 320.773 174.014 320.968 173.907 321.155C174.078 321.244 174.204 321.37 174.265 321.514C174.326 321.659 174.32 321.814 174.246 321.955C173.75 322.65 173.589 323.442 173.788 324.209C174.001 324.931 174.291 325.64 174.653 326.33C175.293 327.49 175.377 328.769 174.891 329.966L184.558 365.636L187.306 365.248C188.85 364.884 190.425 364.588 192.02 364.363C191.996 364.279 191.998 364.192 192.024 364.109C192.05 364.025 192.101 363.947 192.173 363.878C192.576 363.545 193.007 363.229 193.462 362.933C193.42 362.809 193.42 362.68 193.462 362.557C193.747 361.718 194.408 360.969 195.345 360.424C196.194 359.976 197.244 359.765 198.296 359.83C199.309 359.921 200.282 360.172 201.144 360.564C202.006 360.956 202.736 361.479 203.282 362.097C206.063 361.612 209.065 360.885 211.762 361.866L317.185 347.322C317.217 347.125 317.274 346.93 317.355 346.74C317.786 345.759 318.59 344.882 319.678 344.207C319.841 344.108 320.044 344.048 320.258 344.037C320.472 344.026 320.685 344.065 320.866 344.147C320.947 344.052 321.062 343.973 321.199 343.918C321.335 343.864 321.489 343.835 321.646 343.835C321.802 343.835 321.956 343.864 322.093 343.918C322.229 343.973 322.344 344.052 322.426 344.147L322.85 344.51L323.036 344.632L323.359 344.789L323.715 344.91C323.392 344.21 323.392 343.454 323.715 342.753C323.913 342.359 324.224 341.998 324.627 341.694C325.029 341.389 325.516 341.147 326.055 340.983C325.955 340.887 325.89 340.773 325.868 340.653C325.845 340.534 325.865 340.412 325.926 340.3C325.987 340.187 326.087 340.088 326.216 340.01C326.346 339.933 326.5 339.88 326.666 339.856C326.887 339.837 327.111 339.869 327.304 339.947C327.497 340.026 327.65 340.147 327.74 340.293C327.829 340.438 327.851 340.601 327.801 340.756C327.751 340.911 327.632 341.05 327.463 341.153L327.582 341.25C327.7 341.422 327.718 341.621 327.632 341.802C327.546 341.984 327.363 342.134 327.124 342.22L326.734 342.353L326.513 342.438L326.394 342.498L326.123 342.668L326.021 342.753L325.852 342.935V343.008C325.813 343.071 325.779 343.136 325.75 343.201C326.087 342.884 326.481 342.599 326.92 342.353C327.215 342.207 327.534 342.089 327.87 342.002C328.701 340.693 329.481 339.359 330.261 338.05L192.614 357.103Z" fill="#FF3131"/>
<path d="M217.68 300.575C217.861 300.434 218.073 300.315 218.308 300.224L248.938 256.979L234.861 258.931L222.514 276.202C222.591 276.215 222.665 276.235 222.735 276.262C222.953 276.373 223.103 276.539 223.154 276.726C223.204 276.914 223.151 277.108 223.006 277.268C222.718 277.571 222.497 277.899 222.243 278.214C222.463 278.311 222.667 278.432 222.887 278.517C223.054 278.598 223.184 278.713 223.259 278.846C223.335 278.98 223.353 279.127 223.311 279.268C223.27 279.408 223.172 279.536 223.031 279.637C222.889 279.738 222.71 279.808 222.514 279.838L222.175 279.971H222.09H221.988L221.327 280.189H221.174L220.937 280.323L220.411 280.65L220.14 280.856L220.021 280.953L219.546 281.389C219.207 281.716 218.902 282.056 218.579 282.395C218.422 282.553 218.185 282.662 217.918 282.698L199.855 307.98L201.551 314.501L209.574 313.386C209.831 312.843 210.26 312.349 210.829 311.944C211.097 311.763 211.393 311.605 211.711 311.471C211.702 311.427 211.702 311.382 211.711 311.338C212.091 308.403 213.427 305.572 215.611 303.072C215.502 302.951 215.445 302.81 215.445 302.666C215.445 302.522 215.502 302.381 215.611 302.26C215.888 301.915 215.996 301.514 215.917 301.121C215.919 300.975 215.98 300.833 216.092 300.712C216.205 300.591 216.364 300.496 216.55 300.438C216.737 300.38 216.943 300.363 217.144 300.387C217.344 300.411 217.531 300.477 217.68 300.575Z" fill="#FF3131"/>
<path d="M270.442 296.733C270.424 296.915 270.355 297.092 270.238 297.255C269.735 297.958 268.918 298.521 267.915 298.854C267.711 299.073 267.491 299.279 267.304 299.485C267.194 299.595 267.041 299.679 266.863 299.727C266.863 299.836 266.745 299.957 266.711 300.066C266.671 300.161 266.605 300.248 266.516 300.323C266.428 300.399 266.319 300.46 266.196 300.505C266.073 300.549 265.939 300.575 265.802 300.581C265.665 300.588 265.527 300.574 265.397 300.541C265.267 300.508 265.148 300.457 265.047 300.391C264.946 300.324 264.865 300.243 264.808 300.154C264.752 300.064 264.722 299.967 264.719 299.869C264.717 299.77 264.742 299.673 264.794 299.582C264.961 299.165 265.177 298.76 265.439 298.37L264.472 298.503C264.21 298.535 263.94 298.494 263.718 298.388C263.497 298.282 263.342 298.119 263.285 297.933C263.259 297.878 263.259 297.819 263.285 297.764L262.691 297.848L258.858 283.607L246.613 285.304L250.446 299.46L220.139 303.654C219.935 303.727 219.748 303.836 219.545 303.921V304.017C219.62 304.174 219.618 304.344 219.539 304.5C219.46 304.655 219.309 304.787 219.112 304.873C218.914 304.959 218.681 304.995 218.452 304.974C218.222 304.952 218.01 304.876 217.849 304.757C217.284 305.104 216.767 305.49 216.306 305.908C216.483 305.872 216.67 305.872 216.847 305.909C217.024 305.945 217.183 306.016 217.306 306.114C217.401 306.181 217.475 306.26 217.527 306.347C217.578 306.435 217.604 306.529 217.604 306.623C217.604 306.718 217.578 306.812 217.527 306.899C217.475 306.987 217.401 307.066 217.306 307.132L216.492 307.617C216.595 307.74 216.65 307.88 216.65 308.023C216.65 308.166 216.595 308.307 216.492 308.429V308.514C216.484 308.558 216.484 308.603 216.492 308.647C216.492 308.817 216.492 308.999 216.492 309.181C216.457 309.506 216.258 309.812 215.932 310.041C215.563 310.269 215.109 310.416 214.627 310.465H214.508C214.555 310.827 214.629 311.187 214.728 311.544C214.959 311.873 215.141 312.218 215.271 312.574L252.396 307.435L256.569 323.603L269.221 321.858L264.879 305.835L282.195 303.411L280.024 295.412L270.442 296.733Z" fill="#FF3131"/>
<path d="M343.947 253.101L343.133 253.61C342.743 253.852 342.37 254.095 342.014 254.349L341.556 254.713L341.301 254.931C341.01 255.233 340.576 255.45 340.078 255.54C339.581 255.631 339.055 255.589 338.597 255.423C338.139 255.257 337.781 254.979 337.589 254.639C337.397 254.298 337.384 253.92 337.553 253.574L338.028 252.289C338.028 252.289 337.892 252.192 337.842 252.119C337.704 251.937 337.634 251.733 337.638 251.525C337.605 251.328 337.64 251.129 337.74 250.944C337.74 250.798 337.892 250.653 337.977 250.507C337.606 250.25 337.297 249.951 337.061 249.623V249.526C329.908 246.837 321.66 246.03 313.758 247.247C292.389 250.204 279.838 264.518 285.537 285.74C291.235 306.962 310.468 316.876 331.838 313.919C333.758 313.658 335.646 313.289 337.485 312.816C338.079 312.21 338.673 311.604 339.181 311.01C339.383 310.803 339.654 310.634 339.97 310.522C340.287 310.409 340.638 310.354 340.991 310.364C341.344 310.374 341.688 310.447 341.992 310.577C342.295 310.707 342.548 310.889 342.726 311.107C357.091 305.387 364.554 292.697 359.873 275.438C357.21 265.427 351.477 257.913 343.947 253.101ZM329.599 305.641C315.268 307.629 303.091 300.624 298.562 283.946C294.034 267.269 301.666 257.525 315.997 255.549C319.763 254.968 323.679 255.128 327.326 256.014C330.974 256.9 334.216 258.478 336.705 260.579C336.946 260.457 337.216 260.366 337.502 260.312C338.057 260.241 338.629 260.328 339.095 260.555C339.561 260.781 339.885 261.129 339.995 261.524C340.176 262.293 340.204 263.077 340.08 263.851C343.447 267.967 345.745 272.484 346.864 277.183C351.427 293.921 343.795 303.678 329.599 305.641Z" fill="#FF3131"/>
<path d="M436.804 273.693L432.971 259.537L420.709 261.234L424.559 275.39L389.503 280.238L423.033 232.897L408.956 234.837L396.355 252.483C396.236 254.687 395.612 256.861 394.506 258.919C394.429 259.055 394.296 259.172 394.125 259.254C393.955 259.336 393.754 259.38 393.548 259.38C393.342 259.38 393.141 259.336 392.97 259.254C392.8 259.172 392.667 259.055 392.59 258.919C392.251 260.797 391.017 262.535 389.096 263.84C388.971 263.923 388.816 263.98 388.648 264.003C388.48 264.027 388.306 264.017 388.146 263.973L373.883 283.947L375.579 290.467L396.677 287.547C398.477 286.524 400.604 285.836 402.867 285.547C404.855 285.218 406.883 285.027 408.922 284.977C410.451 284.894 411.989 284.975 413.484 285.219L426.272 283.45L430.614 299.461L443.249 297.715L438.907 281.705L456.241 279.281L454.07 271.281L436.804 273.693Z" fill="#FF3131"/>
<path d="M203.691 234.898L201.69 227.529L222.381 224.669L220.821 218.936L200.13 221.797L198.264 214.876L221.686 211.64L219.99 205.726L186.324 210.392L189.207 221.009C189.721 221.196 190.177 221.456 190.547 221.772C191.187 222.35 191.571 223.05 191.65 223.784C191.87 225.299 191.344 226.863 191.65 228.329C191.691 228.452 191.681 228.581 191.62 228.699C191.56 228.818 191.452 228.921 191.31 228.996L195.042 242.231L229.538 237.456L227.944 231.493L203.691 234.898Z" fill="#FF3131"/>
<path d="M264.444 222.002C266.946 220.868 268.91 219.219 270.075 217.272C271.241 215.325 271.554 213.171 270.973 211.094C270.802 211.222 270.574 211.303 270.329 211.324C270.13 211.334 269.932 211.301 269.76 211.23C269.588 211.159 269.449 211.052 269.362 210.925C269.13 210.538 268.976 210.13 268.904 209.713C268.904 209.652 268.904 209.603 268.904 209.543C268.59 209.257 268.365 208.926 268.243 208.573C268.202 208.384 268.263 208.192 268.415 208.034C268.566 207.876 268.795 207.766 269.057 207.725C269.16 207.706 269.268 207.702 269.373 207.715C269.478 207.728 269.578 207.756 269.667 207.798C266.428 202.622 258.626 200.32 248.416 201.738L229.133 204.404L231.745 214.015C231.951 214.078 232.115 214.195 232.203 214.342C233.844 216.724 234.867 219.299 235.221 221.942C235.262 222.13 235.201 222.323 235.049 222.481C234.898 222.639 234.669 222.749 234.407 222.79C234.312 222.802 234.214 222.802 234.119 222.79L237.765 236.34L248.077 234.91L245.669 226.05L255.149 224.729L266.14 232.413L277.214 230.874L264.444 222.002ZM252.47 218.984L243.99 220.196L240.971 209.107L249.451 207.895C255.743 207.022 259.491 208.622 260.441 212.124C261.391 215.627 258.779 218.16 252.47 218.984Z" fill="#FF3131"/>
<path d="M311.234 215.518C313.821 214.344 315.831 212.622 316.983 210.593C318.135 208.564 318.372 206.328 317.662 204.198C315.728 197.059 307.096 193.678 295.19 195.326L275.906 198.004L284.539 229.832L294.851 228.414L292.442 219.542L301.923 218.221L312.93 225.905L324.005 224.365L311.234 215.518ZM299.26 212.512L290.78 213.724L287.778 202.622L296.173 201.41C296.699 201.337 297.208 201.289 297.683 201.253L298.005 201.059C298.035 200.877 298.092 200.698 298.175 200.525C298.285 200.315 298.486 200.135 298.747 200.011C299.009 199.887 299.319 199.825 299.633 199.835C300.235 199.877 300.816 200.018 301.329 200.247C301.418 200.171 301.527 200.109 301.652 200.065C301.659 199.832 301.698 199.601 301.77 199.374C301.869 199.201 302.057 199.061 302.296 198.985C302.535 198.908 302.806 198.9 303.052 198.963C303.299 199.025 303.503 199.153 303.621 199.32C303.739 199.487 303.763 199.68 303.687 199.859C303.483 200.416 303.856 200.913 303.788 201.483C303.765 201.618 303.708 201.75 303.619 201.871C304.572 202.266 305.386 202.813 305.998 203.468C306.609 204.124 307.002 204.871 307.147 205.652C308.164 209.106 305.552 211.639 299.26 212.512Z" fill="#FF3131"/>
<path d="M360.029 189.182L359.503 189.279C359.378 189.309 359.258 189.35 359.147 189.4C359.094 189.422 359.048 189.45 359.011 189.485C358.86 189.613 358.66 189.706 358.434 189.752C358.302 189.768 358.167 189.766 358.036 189.745C357.905 189.725 357.781 189.686 357.671 189.63C357.557 189.581 357.46 189.514 357.387 189.434C357.313 189.355 357.266 189.264 357.247 189.17C357.195 188.981 357.25 188.785 357.4 188.624C357.4 188.624 357.502 188.564 357.536 188.527C353.193 187.538 348.57 187.359 344.103 188.006C330.026 189.958 321.631 198.393 324.192 207.847C326.753 217.3 338.964 222.888 353.024 220.936C367.084 218.985 375.513 210.598 372.935 201.096C372.302 198.51 370.795 196.073 368.546 193.997C366.297 191.921 363.373 190.268 360.029 189.182ZM351.345 214.634C347.564 215.158 343.647 214.587 340.456 213.047C337.264 211.507 335.059 209.124 334.326 206.423C333.593 203.721 334.391 200.922 336.546 198.641C338.701 196.36 342.036 194.784 345.816 194.26C347.72 193.994 349.679 193.994 351.583 194.26C351.583 194.091 351.735 193.921 351.82 193.775C351.904 193.611 352.069 193.473 352.285 193.389C352.5 193.304 352.75 193.278 352.99 193.315C353.179 193.339 353.352 193.404 353.486 193.502C353.62 193.6 353.707 193.725 353.736 193.86L354.33 193.751C354.466 193.448 354.601 193.157 354.72 192.854C354.839 192.551 354.856 192.503 354.907 192.333C354.943 192.25 354.971 192.165 354.992 192.079V191.994L355.093 191.557V191.4C354.991 190.915 355.704 190.333 356.433 190.588L358.451 191.279C358.7 191.349 358.902 191.485 359.016 191.659C359.129 191.832 359.146 192.03 359.062 192.212C358.943 192.393 358.841 192.579 358.757 192.769C358.757 192.83 358.757 192.903 358.672 192.963C358.672 192.963 358.672 192.963 358.672 193.048C358.638 193.339 358.638 193.63 358.672 193.921C358.708 194.61 358.652 195.3 358.502 195.981C358.549 196.06 358.574 196.144 358.574 196.23C358.574 196.315 358.549 196.4 358.502 196.478C358.467 196.561 358.403 196.636 358.316 196.696C360.533 198.265 362.02 200.283 362.573 202.478C363.036 203.806 363.108 205.189 362.785 206.539C362.462 207.888 361.75 209.175 360.695 210.318C359.639 211.46 358.263 212.434 356.654 213.177C355.044 213.92 353.237 214.416 351.345 214.634Z" fill="#FF3131"/>
<path d="M418.335 191.193C418.279 191.188 418.222 191.188 418.166 191.193C417.761 191.091 417.387 190.935 417.063 190.733C416.909 190.921 416.733 191.099 416.538 191.266C416.381 191.42 416.148 191.525 415.887 191.561C415.626 191.597 415.355 191.561 415.13 191.46C414.908 191.352 414.755 191.185 414.704 190.997C414.653 190.809 414.709 190.613 414.858 190.454C415.86 189.479 416.491 188.335 416.69 187.133C413.298 182.212 405.649 180.067 395.694 181.449L376.41 184.115L384.992 215.918L395.304 214.488L392.895 205.616L402.376 204.307L413.383 211.979L424.458 210.452L411.687 201.604C414.092 200.519 416.002 198.957 417.183 197.107C418.364 195.258 418.765 193.203 418.335 191.193ZM399.764 198.587L391.284 199.799L388.384 188.648L396.864 187.436C403.173 186.564 406.904 188.175 407.854 191.678C408.804 195.181 406.056 197.714 399.764 198.587Z" fill="#FF3131"/>
<path d="M328.632 383.792H401.119C403.089 383.792 405.04 384.07 406.861 384.609C408.681 385.148 410.334 385.938 411.727 386.934C413.119 387.931 414.223 389.113 414.975 390.414C415.728 391.716 416.114 393.11 416.112 394.518V412.698C416.114 414.106 415.728 415.501 414.975 416.802C414.223 418.103 413.119 419.286 411.727 420.282C410.334 421.278 408.681 422.069 406.861 422.608C405.04 423.147 403.089 423.424 401.119 423.424H352.953L330.905 440.271L342.777 423.424H328.564C324.583 423.424 320.766 422.294 317.951 420.283C315.136 418.271 313.555 415.543 313.555 412.698V394.518C313.555 393.106 313.945 391.707 314.704 390.402C315.462 389.098 316.574 387.913 317.975 386.917C319.376 385.92 321.038 385.131 322.867 384.595C324.696 384.058 326.655 383.786 328.632 383.792Z" fill="#03C365"/>
<path opacity="0.7" d="M328.632 383.792H401.119C403.089 383.792 405.04 384.07 406.861 384.609C408.681 385.148 410.334 385.938 411.727 386.934C413.119 387.931 414.223 389.113 414.975 390.414C415.728 391.716 416.114 393.11 416.112 394.518V412.698C416.114 414.106 415.728 415.501 414.975 416.802C414.223 418.103 413.119 419.286 411.727 420.282C410.334 421.278 408.681 422.069 406.861 422.608C405.04 423.147 403.089 423.424 401.119 423.424H352.953L330.905 440.271L342.777 423.424H328.564C324.583 423.424 320.766 422.294 317.951 420.283C315.136 418.271 313.555 415.543 313.555 412.698V394.518C313.555 393.106 313.945 391.707 314.704 390.402C315.462 389.098 316.574 387.913 317.975 386.917C319.376 385.92 321.038 385.131 322.867 384.595C324.696 384.058 326.655 383.786 328.632 383.792Z" fill="white"/>
<path d="M332.178 402.603C332.114 401.379 332.563 400.17 333.467 399.13C334.371 398.09 335.689 397.266 337.253 396.765C338.816 396.264 340.553 396.109 342.242 396.318C343.93 396.528 345.492 397.093 346.728 397.941C347.963 398.789 348.816 399.882 349.177 401.079C349.537 402.276 349.389 403.523 348.752 404.659C348.114 405.796 347.016 406.77 345.598 407.458C344.18 408.145 342.507 408.514 340.794 408.517C339.676 408.557 338.559 408.433 337.511 408.153C336.463 407.873 335.506 407.443 334.7 406.889C333.893 406.335 333.253 405.669 332.819 404.932C332.385 404.195 332.167 403.402 332.178 402.603ZM347.052 402.603C347.065 401.71 346.707 400.835 346.022 400.089C345.338 399.343 344.358 398.759 343.207 398.412C342.057 398.065 340.788 397.97 339.562 398.14C338.336 398.31 337.208 398.737 336.323 399.366C335.437 399.995 334.834 400.799 334.59 401.674C334.345 402.549 334.471 403.456 334.95 404.28C335.429 405.104 336.241 405.808 337.282 406.301C338.322 406.795 339.545 407.055 340.794 407.051C341.62 407.069 342.442 406.967 343.211 406.75C343.979 406.533 344.678 406.207 345.264 405.79C345.85 405.374 346.31 404.876 346.618 404.328C346.925 403.78 347.073 403.193 347.052 402.603Z" fill="#03C365"/>
<path d="M351.444 404.008C351.41 403.103 351.754 402.212 352.433 401.447C353.111 400.682 354.093 400.079 355.253 399.715C356.413 399.351 357.698 399.242 358.945 399.402C360.192 399.562 361.344 399.984 362.254 400.613C363.164 401.243 363.791 402.052 364.055 402.938C364.319 403.823 364.208 404.745 363.736 405.585C363.264 406.425 362.453 407.146 361.405 407.655C360.357 408.164 359.121 408.439 357.855 408.444C357.019 408.474 356.183 408.381 355.4 408.171C354.617 407.96 353.902 407.637 353.301 407.221C352.7 406.805 352.225 406.305 351.905 405.753C351.586 405.2 351.429 404.606 351.444 404.008ZM361.942 404.008C361.978 403.605 361.898 403.2 361.707 402.82C361.516 402.439 361.218 402.091 360.83 401.796C360.443 401.501 359.976 401.266 359.457 401.105C358.938 400.945 358.378 400.862 357.812 400.862C357.246 400.862 356.687 400.945 356.168 401.105C355.648 401.266 355.181 401.501 354.794 401.796C354.407 402.091 354.108 402.439 353.917 402.82C353.726 403.2 353.646 403.605 353.682 404.008C353.646 404.412 353.726 404.816 353.917 405.197C354.108 405.577 354.407 405.926 354.794 406.221C355.181 406.516 355.648 406.751 356.168 406.911C356.687 407.072 357.246 407.155 357.812 407.155C358.378 407.155 358.938 407.072 359.457 406.911C359.976 406.751 360.443 406.516 360.83 406.221C361.218 405.926 361.516 405.577 361.707 405.197C361.898 404.816 361.978 404.412 361.942 404.008Z" fill="#03C365"/>
<path d="M379.901 404.009C379.947 404.601 379.818 405.194 379.525 405.748C379.231 406.303 378.778 406.808 378.195 407.23C377.612 407.652 376.912 407.983 376.14 408.2C375.367 408.418 374.54 408.518 373.711 408.493C372.891 408.511 372.077 408.391 371.335 408.143C370.592 407.894 369.942 407.524 369.437 407.063V411.596H367.215V399.633H369.335V401.027C369.843 400.547 370.507 400.161 371.269 399.904C372.031 399.646 372.868 399.524 373.711 399.549C374.537 399.524 375.361 399.623 376.131 399.839C376.901 400.055 377.599 400.384 378.182 400.803C378.764 401.223 379.218 401.725 379.514 402.277C379.81 402.828 379.942 403.418 379.901 404.009ZM377.662 404.009C377.622 403.434 377.348 402.88 376.872 402.415C376.396 401.951 375.741 401.596 374.986 401.395C374.231 401.194 373.411 401.155 372.626 401.283C371.84 401.412 371.125 401.702 370.568 402.118C370.011 402.534 369.637 403.057 369.492 403.624C369.347 404.19 369.437 404.774 369.752 405.304C370.066 405.834 370.591 406.286 371.261 406.605C371.932 406.925 372.718 407.096 373.524 407.099C374.09 407.112 374.653 407.04 375.178 406.888C375.702 406.735 376.176 406.506 376.569 406.215C376.962 405.924 377.266 405.577 377.46 405.197C377.654 404.817 377.734 404.412 377.696 404.009H377.662Z" fill="#03C365"/>
<path d="M381.461 407.463L382.377 406.251C383.664 406.836 385.159 407.147 386.685 407.147C388.737 407.147 389.585 406.711 389.585 405.935C389.585 403.972 381.851 405.681 381.851 402.19C381.851 400.627 383.818 399.56 386.939 399.56C388.498 399.543 390.036 399.819 391.399 400.36L390.45 401.572C389.393 401.101 388.167 400.861 386.922 400.881C384.972 400.881 384.022 401.39 384.022 402.093C384.022 404.154 391.79 402.469 391.79 405.875C391.79 407.45 389.754 408.468 386.498 408.468C384.715 408.507 382.958 408.156 381.461 407.463Z" fill="#03C365"/>
<path d="M394.082 407.426C394.082 407.284 394.122 407.144 394.199 407.014C394.276 406.883 394.39 406.766 394.532 406.667C394.674 406.569 394.843 406.492 395.028 406.441C395.213 406.39 395.41 406.367 395.608 406.371C395.803 406.368 395.997 406.393 396.179 406.445C396.36 406.497 396.524 406.574 396.662 406.673C396.8 406.771 396.909 406.889 396.981 407.018C397.054 407.148 397.089 407.286 397.084 407.426C397.086 407.565 397.05 407.704 396.977 407.833C396.903 407.962 396.795 408.08 396.658 408.179C396.521 408.279 396.357 408.357 396.177 408.411C395.997 408.465 395.804 408.492 395.608 408.492C395.41 408.496 395.212 408.47 395.027 408.418C394.842 408.366 394.673 408.288 394.531 408.189C394.389 408.089 394.276 407.971 394.199 407.84C394.122 407.709 394.082 407.568 394.082 407.426ZM394.286 396.833H396.863L396.423 404.735H394.727L394.286 396.833Z" fill="#03C365"/>
<path d="M751.327 194.865C751.327 198.816 721.087 202.21 677.771 203.701L674.294 203.822L669.614 203.955C663.118 204.137 656.368 204.27 649.414 204.38H646.294H644.598C639.255 204.44 633.794 204.464 628.248 204.464C618.208 204.464 608.456 204.367 599.111 204.198L592.327 204.04C575.282 203.64 559.814 202.949 546.789 202.053C521.23 200.283 505.102 197.701 505.102 194.781C505.102 190.429 541.735 186.769 592.123 185.557L596.075 185.46C599.591 185.388 603.159 185.327 606.777 185.278C611.135 185.218 615.579 185.181 620.073 185.157H628.265C640.951 185.157 653.196 185.303 664.712 185.594L670.173 185.727L677.279 185.945L679.128 186.018L683.86 186.187C723.767 187.86 751.327 191.096 751.327 194.865Z" fill="#26382B"/>
<path opacity="0.4" d="M751.327 194.865C751.327 198.816 721.087 202.21 677.771 203.701L674.294 203.822L669.614 203.955C663.118 204.137 656.368 204.27 649.414 204.38H646.294H644.598C639.255 204.44 633.794 204.464 628.248 204.464C618.208 204.464 608.456 204.367 599.111 204.198L592.327 204.04C575.282 203.64 559.814 202.949 546.789 202.053C521.23 200.283 505.102 197.701 505.102 194.781C505.102 193.496 508.307 192.26 514.124 191.145C524.869 192.944 535.788 194.159 546.789 194.781C559.814 195.677 575.282 196.368 592.327 196.768L599.111 196.926C608.456 197.095 618.208 197.192 628.248 197.192C633.794 197.192 639.255 197.192 644.598 197.108H646.294H649.414C656.368 196.998 663.118 196.865 669.614 196.683L674.294 196.55L677.771 196.429C706.993 195.423 730.246 193.556 742.304 191.229C748.037 192.357 751.327 193.569 751.327 194.865Z" fill="white"/>
<path d="M619.887 185.242C619.764 186.686 619.004 188.065 617.716 189.181C616.308 190.393 615.104 191.314 613.73 192.32C612.916 192.914 612.034 193.532 611.271 194.066C610.728 194.466 610.169 194.841 609.575 195.205C606.703 197.101 603.667 198.866 600.485 200.489L599.925 200.768L598.449 201.471C596.417 202.442 594.299 203.316 592.106 204.089C591.292 204.38 590.41 204.658 589.596 204.925C587.565 205.536 585.473 206.038 583.338 206.428C581.439 206.792 579.624 207.107 577.826 207.373C575.299 207.773 572.738 208.137 570.313 208.464C565.683 209.106 561.07 209.676 556.422 210.161C552.471 210.585 548.519 210.985 544.55 211.373C541.362 211.652 538.174 211.894 534.951 212.088C534.596 212.118 534.238 212.118 533.883 212.088C532.809 211.983 531.817 211.62 531.071 211.058C530.325 210.496 529.869 209.769 529.778 208.997C529.761 208.844 529.761 208.69 529.778 208.537C529.821 207.866 530.143 207.22 530.702 206.68C531.26 206.141 532.031 205.732 532.916 205.507L533.323 205.41C537.716 204.283 542.125 203.216 546.552 202.186L553.251 200.635C560.035 199.059 566.819 197.58 573.416 196.017C575.112 195.629 576.69 195.229 578.199 194.805C579.5 194.497 580.751 194.091 581.93 193.593C582.694 193.278 583.457 192.926 584.237 192.551C585.947 191.729 587.595 190.843 589.172 189.896C591.411 188.575 593.65 187.121 595.838 185.606C599.354 185.533 602.921 185.472 606.539 185.424C610.949 185.303 615.392 185.266 619.887 185.242Z" fill="#FFB573"/>
<path d="M620.091 190.139C619.972 190.393 619.836 190.636 619.7 190.878C619.565 191.121 619.412 191.363 619.243 191.605C619.093 191.843 618.923 192.074 618.734 192.296L618.174 192.987V193.048C617.79 193.476 617.383 193.88 616.953 194.26C616.495 194.684 616.02 195.096 615.511 195.472L615.036 195.847C614.299 196.411 613.517 196.946 612.696 197.447C612.425 197.629 612.136 197.799 611.848 197.956C611.749 198.028 611.641 198.093 611.526 198.15C608.983 199.6 606.258 200.878 603.385 201.968L602.35 202.344L601.333 202.707L600.943 202.829L599.705 202.053L598.653 201.374L596.279 199.871L584.407 192.393L583.508 191.824C583.508 191.824 587.137 188.927 591.988 185.545L595.94 185.449C599.456 185.376 603.023 185.315 606.641 185.267C611 185.206 615.444 185.17 619.938 185.146H620.922C621.165 186.833 620.881 188.539 620.091 190.139Z" fill="#03C365"/>
<path opacity="0.7" d="M620.108 190.139C619.989 190.39 619.854 190.637 619.7 190.878C619.565 191.121 619.412 191.363 619.243 191.605C619.093 191.843 618.923 192.074 618.734 192.296L618.174 192.987V193.048C617.79 193.476 617.383 193.88 616.953 194.26C616.495 194.684 616.02 195.096 615.511 195.472L615.036 195.847C614.299 196.411 613.517 196.946 612.696 197.447C612.425 197.629 612.136 197.799 611.848 197.956C611.749 198.028 611.641 198.093 611.526 198.15C608.983 199.6 606.258 200.878 603.385 201.968L602.35 202.344L601.333 202.707L600.943 202.829L599.705 202.053L598.653 201.374L596.279 199.871L584.407 192.393L583.508 191.824C583.508 191.824 587.137 188.927 591.988 185.545L595.94 185.449C599.456 185.376 603.023 185.315 606.641 185.267C611 185.206 615.444 185.17 619.938 185.146H620.939C621.183 186.833 620.899 188.539 620.108 190.139Z" fill="white"/>
<path opacity="0.1" d="M611.407 198.235C608.141 200.1 604.571 201.675 600.773 202.926L596.109 199.98C598.559 194.781 602.973 190.167 608.863 186.648C610.983 189.46 611.662 195.338 611.407 198.235Z" fill="black"/>
<path d="M534.715 205.471L518.977 203.75L519.095 213.713C519.095 213.713 529.882 216.028 535.597 210.792L534.715 205.471Z" fill="#EBB376"/>
<path d="M508.242 206.441L510.837 213.846L519.08 213.713L518.961 203.75L508.242 206.441Z" fill="#EBB376"/>
<path d="M677.093 186.006C676.958 186.261 676.805 186.515 676.669 186.782C676.262 187.521 675.872 188.273 675.499 189.024C675.262 189.485 675.041 189.945 674.821 190.418C674.6 190.891 674.363 191.363 674.159 191.836C673.532 193.242 672.921 194.66 672.327 196.102C672.307 196.18 672.279 196.257 672.243 196.332C671.598 197.932 671.022 199.569 670.462 201.18V201.374C670.174 202.223 669.868 203.071 669.597 203.932C669.461 204.32 669.342 204.695 669.224 205.083C668.766 206.574 668.325 208.077 667.918 209.568C667.765 210.125 667.613 210.683 667.477 211.228C667.341 211.773 667.155 212.44 667.019 212.961C667.019 213.082 667.019 213.203 666.934 213.325C666.849 213.64 666.765 213.955 666.697 214.27C666.476 215.155 666.273 216.027 666.069 216.888C666.069 217.021 666.069 217.143 665.984 217.276L665.781 218.185C665.374 219.954 665.018 221.688 664.695 223.372C664.687 223.469 664.687 223.566 664.695 223.663C664.339 225.517 664.034 227.299 663.763 229.032C663.644 229.747 663.525 230.45 663.423 231.141C663.271 232.111 663.135 233.044 663.016 233.953C662.915 234.62 662.83 235.274 662.745 235.904C662.66 236.535 662.592 237.116 662.525 237.637C662.457 238.159 662.389 238.752 662.321 239.274C662.151 240.752 662.016 242.085 661.897 243.237C661.897 243.746 661.812 244.206 661.761 244.643C661.626 246.255 661.558 247.382 661.524 247.891C661.524 248.097 661.524 248.206 661.524 248.206L631.454 246.231H631.013L625.925 245.891L618.276 245.382L608.863 244.825L606.641 244.679L595.397 243.94C595.397 243.176 595.295 242.437 595.278 241.686C595.278 241.479 595.278 241.273 595.278 241.067C594.956 234.45 595.126 228.378 595.617 222.887C595.889 220.011 596.239 217.276 596.669 214.682C597.279 210.949 598.043 207.519 598.908 204.356C599.094 203.641 599.298 202.938 599.501 202.259C599.637 201.786 599.773 201.338 599.925 200.89C601.063 197.252 602.467 193.66 604.131 190.127C604.945 188.43 605.827 186.891 606.557 185.497C610.915 185.437 615.359 185.4 619.853 185.376H628.045C640.731 185.376 652.976 185.521 664.492 185.812L669.953 185.946L677.093 186.006Z" fill="#03C365"/>
<path opacity="0.7" d="M677.093 186.006C676.958 186.261 676.805 186.515 676.669 186.782C676.262 187.521 675.872 188.273 675.499 189.024C675.262 189.485 675.041 189.945 674.821 190.418C674.6 190.891 674.363 191.363 674.159 191.836V191.921C673.532 193.302 672.955 194.684 672.378 196.102C672.358 196.18 672.33 196.257 672.294 196.332C671.479 198.393 670.716 200.49 670.004 202.599C669.851 203.047 669.716 203.507 669.58 203.956C669.444 204.404 669.326 204.719 669.207 205.107C668.749 206.598 668.308 208.101 667.901 209.592C667.731 210.149 667.579 210.707 667.443 211.264C667.29 211.834 667.138 212.416 667.002 212.985C667.002 213.107 667.002 213.24 666.9 213.361C666.815 213.676 666.731 213.991 666.663 214.306C666.442 215.191 666.239 216.064 666.035 216.924C666.035 217.058 666.035 217.179 665.95 217.312L665.747 218.221C665.357 219.991 664.984 221.724 664.662 223.409C664.653 223.505 664.653 223.603 664.662 223.699C664.305 225.554 664 227.335 663.729 229.069C663.61 229.784 663.491 230.487 663.39 231.177C663.237 232.147 663.101 233.08 662.982 233.989C662.881 234.656 662.796 235.31 662.711 235.941C662.626 236.571 662.558 237.153 662.491 237.674C662.423 238.195 662.355 238.789 662.287 239.31C662.118 240.789 661.982 242.122 661.863 243.273C661.863 243.782 661.778 244.243 661.727 244.679C661.592 246.291 661.524 247.418 661.49 247.927C661.49 248.133 661.49 248.242 661.49 248.242L631.42 246.267H630.979L625.891 245.928L618.242 245.418L608.863 244.825L606.641 244.679L595.397 243.94C595.397 243.176 595.295 242.437 595.278 241.686C595.278 241.479 595.278 241.273 595.278 241.067C594.956 234.45 595.126 228.378 595.617 222.887C595.889 220.011 596.239 217.276 596.669 214.682C597.279 210.949 598.043 207.519 598.908 204.356C599.094 203.641 599.298 202.938 599.501 202.259C599.637 201.786 599.773 201.338 599.925 200.89C601.063 197.252 602.467 193.66 604.131 190.127C604.945 188.43 605.827 186.891 606.557 185.497C610.915 185.437 615.359 185.4 619.853 185.376H628.045C640.731 185.376 652.976 185.521 664.492 185.812L669.953 185.946L677.093 186.006Z" fill="white"/>
<path d="M514.736 346.875C514.736 346.875 535.936 340.572 536.666 334.331C536.674 334.181 536.725 334.034 536.816 333.9C536.908 333.765 537.037 333.646 537.197 333.549C537.356 333.452 537.542 333.38 537.743 333.337C537.943 333.294 538.154 333.282 538.362 333.3L554.542 334.003C554.923 334.026 555.289 334.121 555.602 334.279C555.915 334.437 556.164 334.651 556.322 334.9L562.801 345.602L558.307 346.038L556.424 344.572L554.728 346.39C530.374 348.814 519.824 349.602 514.804 348.996C513.888 347.529 514.736 346.875 514.736 346.875Z" fill="black"/>
<path d="M614.106 283.935C613.173 283.79 612.664 283.681 612.664 283.681L536.344 276.869L559.037 334.621L535.937 336.197C535.937 336.197 483.226 263.537 504.765 253.053C526.304 242.57 593.093 254.144 593.093 254.144L595.721 239.758L662.12 243.297C672.788 290.722 623.265 285.305 614.106 283.935Z" fill="#26382B"/>
<path d="M592.108 450.78C592.108 450.78 614.97 449.217 618.21 443.35C618.277 443.213 618.383 443.087 618.521 442.98C618.658 442.873 618.825 442.787 619.01 442.727C619.195 442.667 619.396 442.634 619.599 442.631C619.803 442.628 620.005 442.654 620.194 442.708L635.458 446.756C635.811 446.856 636.121 447.021 636.356 447.233C636.591 447.446 636.744 447.7 636.798 447.968L638.629 459.555L634.152 459.034L632.931 457.24L630.624 458.634C606.371 455.834 595.924 454.44 591.379 452.804C590.955 451.204 592.108 450.78 592.108 450.78Z" fill="black"/>
<path d="M662.781 260.483C662.679 260.774 659.915 269.864 656.302 282.893C656.099 283.633 655.895 284.408 655.675 285.172C653.979 291.365 652.113 298.334 650.282 305.594C648.043 314.43 645.821 323.774 643.955 332.585C641.426 343.623 639.778 354.756 639.02 365.928C638.138 394.01 636.493 449.422 636.493 449.422L615.344 446.998C615.344 446.998 603.658 387.901 603.794 359.286C603.896 341.106 610.205 303.643 614.513 280.348C616.684 268.398 618.346 260.156 618.346 260.156L642.31 260.314L662.781 260.483Z" fill="#26382B"/>
<path d="M661.117 247.915L662.525 247.999L662.457 244.715L661.219 244.654L661.117 247.915Z" fill="#26382B"/>
<path d="M608.914 245.018L637.237 246.594L637.373 243.334L609.152 241.782L608.914 245.018Z" fill="#26382B"/>
<path d="M606.964 241.661L594.99 240.994L594.566 244.218L606.693 244.897L606.964 241.661Z" fill="#26382B"/>
<path d="M659.033 244.534L639.546 243.455L639.461 246.715L658.88 247.794L659.033 244.534Z" fill="#26382B"/>
<g opacity="0.2">
<path d="M661.117 247.915L662.525 247.999L662.457 244.715L661.219 244.654L661.117 247.915Z" fill="white"/>
<path d="M608.914 245.018L637.237 246.594L637.373 243.334L609.152 241.782L608.914 245.018Z" fill="white"/>
<path d="M606.964 241.661L594.99 240.994L594.566 244.218L606.693 244.897L606.964 241.661Z" fill="white"/>
<path d="M659.033 244.533L639.546 243.454L639.461 246.714L658.88 247.793L659.033 244.533Z" fill="white"/>
</g>
<path d="M625.554 246.376H625.418L618.362 245.903C617.994 245.882 617.651 245.758 617.407 245.559C617.163 245.36 617.038 245.101 617.057 244.837L617.158 242.861C617.165 242.722 617.212 242.586 617.296 242.46C617.381 242.335 617.502 242.224 617.65 242.134C617.792 242.039 617.961 241.968 618.146 241.924C618.33 241.88 618.525 241.865 618.719 241.879L625.74 242.267C626.109 242.286 626.453 242.406 626.7 242.603C626.947 242.8 627.077 243.058 627.063 243.322V245.382C627.06 245.522 627.017 245.66 626.935 245.788C626.853 245.915 626.735 246.029 626.588 246.121C626.302 246.298 625.931 246.389 625.554 246.376ZM618.6 242.74C618.556 242.729 618.508 242.729 618.464 242.74C618.453 242.757 618.448 242.776 618.448 242.795C618.448 242.813 618.453 242.832 618.464 242.849L618.346 244.825C618.343 244.845 618.347 244.865 618.356 244.884C618.365 244.903 618.38 244.921 618.399 244.935C618.418 244.95 618.441 244.962 618.467 244.97C618.493 244.978 618.521 244.982 618.549 244.982L625.604 245.455C625.631 245.463 625.66 245.467 625.689 245.467C625.718 245.467 625.747 245.463 625.774 245.455C625.794 245.42 625.794 245.381 625.774 245.346V243.285C625.774 243.246 625.753 243.207 625.716 243.178C625.678 243.149 625.626 243.131 625.57 243.128L618.549 242.74H618.6Z" fill="white"/>
<path d="M625.45 244.703L623.296 244.558C623.133 244.546 622.983 244.488 622.878 244.397C622.773 244.307 622.722 244.19 622.737 244.073C622.754 243.959 622.833 243.855 622.956 243.783C623.08 243.71 623.239 243.675 623.398 243.685L625.552 243.831C625.714 243.831 625.869 243.877 625.984 243.959C626.098 244.04 626.163 244.151 626.163 244.267C626.163 244.383 626.098 244.494 625.984 244.576C625.869 244.657 625.714 244.703 625.552 244.703H625.45Z" fill="white"/>
<path opacity="0.1" d="M672.246 196.344C671.432 198.405 670.668 200.501 669.956 202.61C669.685 203.446 669.413 204.283 669.159 205.119C667.887 209.228 666.801 213.349 665.903 217.324L665.699 218.233C654.048 220.911 641.955 219.069 642.345 211.046C642.905 200.295 655.727 195.29 655.727 195.29C661.442 193.048 667.429 193.92 672.246 196.344Z" fill="black"/>
<path d="M558.258 504.205H573.946L522.93 216.112H507.242L558.258 504.205Z" fill="#26382B"/>
<path opacity="0.4" d="M558.258 504.205H573.946L522.93 216.112H507.242L558.258 504.205Z" fill="white"/>
<path d="M525.456 258.811H575.335C575.956 258.787 576.555 258.638 577.063 258.38C577.57 258.123 577.965 257.768 578.201 257.357L581.373 252.509H519.418L522.589 257.357C522.826 257.768 523.221 258.123 523.728 258.38C524.235 258.638 524.834 258.787 525.456 258.811Z" fill="#26382B"/>
<path opacity="0.4" d="M525.456 258.811H575.335C575.956 258.787 576.555 258.638 577.063 258.38C577.57 258.123 577.965 257.768 578.201 257.357L581.373 252.509H519.418L522.589 257.357C522.826 257.768 523.221 258.123 523.728 258.38C524.235 258.638 524.834 258.787 525.456 258.811Z" fill="white"/>
<path d="M520.25 254.836H580.526C582.315 254.836 583.766 253.8 583.766 252.521V252C583.766 250.721 582.315 249.685 580.526 249.685H520.25C518.461 249.685 517.011 250.721 517.011 252V252.521C517.011 253.8 518.461 254.836 520.25 254.836Z" fill="#26382B"/>
<path opacity="0.1" d="M520.25 254.836H580.526C582.315 254.836 583.766 253.8 583.766 252.521V252C583.766 250.721 582.315 249.685 580.526 249.685H520.25C518.461 249.685 517.011 250.721 517.011 252V252.521C517.011 253.8 518.461 254.836 520.25 254.836Z" fill="white"/>
<path d="M534.561 299.994H584.424C585.048 299.972 585.65 299.822 586.158 299.562C586.667 299.302 587.059 298.943 587.29 298.528L590.461 293.74H528.523L531.678 298.528C531.911 298.944 532.307 299.303 532.818 299.563C533.33 299.823 533.934 299.973 534.561 299.994Z" fill="#26382B"/>
<path opacity="0.4" d="M534.561 299.994H584.424C585.048 299.972 585.65 299.822 586.158 299.562C586.667 299.302 587.059 298.943 587.29 298.528L590.461 293.74H528.523L531.678 298.528C531.911 298.944 532.307 299.303 532.818 299.563C533.33 299.823 533.934 299.973 534.561 299.994Z" fill="white"/>
<path d="M529.356 296.02H589.632C591.421 296.02 592.871 294.983 592.871 293.705V293.183C592.871 291.905 591.421 290.869 589.632 290.869H529.356C527.567 290.869 526.117 291.905 526.117 293.183V293.705C526.117 294.983 527.567 296.02 529.356 296.02Z" fill="#26382B"/>
<path opacity="0.1" d="M529.356 296.02H589.632C591.421 296.02 592.871 294.983 592.871 293.705V293.183C592.871 291.905 591.421 290.869 589.632 290.869H529.356C527.567 290.869 526.117 291.905 526.117 293.183V293.705C526.117 294.983 527.567 296.02 529.356 296.02Z" fill="white"/>
<path d="M543.654 354.499H593.601C594.226 354.48 594.831 354.333 595.342 354.075C595.853 353.817 596.25 353.459 596.484 353.044L599.639 348.196H537.633L540.804 353.044C541.034 353.456 541.425 353.812 541.93 354.07C542.435 354.328 543.034 354.477 543.654 354.499Z" fill="#26382B"/>
<path opacity="0.4" d="M543.654 354.499H593.601C594.226 354.48 594.831 354.333 595.342 354.075C595.853 353.817 596.25 353.459 596.484 353.044L599.639 348.196H537.633L540.804 353.044C541.034 353.456 541.425 353.812 541.93 354.07C542.435 354.328 543.034 354.477 543.654 354.499Z" fill="white"/>
<path d="M538.446 350.535H598.722C600.511 350.535 601.961 349.499 601.961 348.22V347.699C601.961 346.421 600.511 345.384 598.722 345.384H538.446C536.657 345.384 535.206 346.421 535.206 347.699V348.22C535.206 349.499 536.657 350.535 538.446 350.535Z" fill="#26382B"/>
<path opacity="0.1" d="M538.446 350.535H598.722C600.511 350.535 601.961 349.499 601.961 348.22V347.699C601.961 346.421 600.511 345.384 598.722 345.384H538.446C536.657 345.384 535.206 346.421 535.206 347.699V348.22C535.206 349.499 536.657 350.535 538.446 350.535Z" fill="white"/>
<path d="M552.745 409.014H602.624C603.247 408.993 603.847 408.845 604.356 408.587C604.864 408.329 605.257 407.973 605.49 407.56L608.662 402.712H546.707L549.879 407.56C550.112 407.973 550.505 408.329 551.013 408.587C551.521 408.845 552.122 408.993 552.745 409.014Z" fill="#26382B"/>
<path opacity="0.4" d="M552.745 409.014H602.624C603.247 408.993 603.847 408.845 604.356 408.587C604.864 408.329 605.257 407.973 605.49 407.56L608.662 402.712H546.707L549.879 407.56C550.112 407.973 550.505 408.329 551.013 408.587C551.521 408.845 552.122 408.993 552.745 409.014Z" fill="white"/>
<path d="M547.536 405.051H607.811C609.6 405.051 611.051 404.014 611.051 402.736V402.215C611.051 400.936 609.6 399.9 607.811 399.9H547.536C545.747 399.9 544.296 400.936 544.296 402.215V402.736C544.296 404.014 545.747 405.051 547.536 405.051Z" fill="#26382B"/>
<path opacity="0.1" d="M547.536 405.051H607.811C609.6 405.051 611.051 404.014 611.051 402.736V402.215C611.051 400.936 609.6 399.9 607.811 399.9H547.536C545.747 399.9 544.296 400.936 544.296 402.215V402.736C544.296 404.014 545.747 405.051 547.536 405.051Z" fill="white"/>
<path d="M561.852 463.53H611.714C612.337 463.51 612.939 463.363 613.447 463.105C613.956 462.847 614.349 462.489 614.58 462.076L617.752 457.228H555.797L558.968 462.076C559.203 462.49 559.599 462.848 560.11 463.106C560.622 463.364 561.226 463.511 561.852 463.53Z" fill="#26382B"/>
<path opacity="0.4" d="M561.852 463.53H611.714C612.337 463.51 612.939 463.363 613.447 463.105C613.956 462.847 614.349 462.489 614.58 462.076L617.752 457.228H555.797L558.968 462.076C559.203 462.49 559.599 462.848 560.11 463.106C560.622 463.364 561.226 463.511 561.852 463.53Z" fill="white"/>
<path d="M556.629 459.566H616.905C618.694 459.566 620.145 458.53 620.145 457.251V456.73C620.145 455.452 618.694 454.415 616.905 454.415H556.629C554.84 454.415 553.39 455.452 553.39 456.73V457.251C553.39 458.53 554.84 459.566 556.629 459.566Z" fill="#26382B"/>
<path opacity="0.1" d="M556.629 459.566H616.905C618.694 459.566 620.145 458.53 620.145 457.251V456.73C620.145 455.452 618.694 454.415 616.905 454.415H556.629C554.84 454.415 553.39 455.452 553.39 456.73V457.251C553.39 458.53 554.84 459.566 556.629 459.566Z" fill="white"/>
<path d="M618.82 504.205H634.508L583.493 216.112H567.805L618.82 504.205Z" fill="#26382B"/>
<path opacity="0.7" d="M618.82 504.205H634.508L583.493 216.112H567.805L618.82 504.205Z" fill="white"/>
<path d="M454.122 504.205H438.434L489.432 216.112H505.12L454.122 504.205Z" fill="#26382B"/>
<path opacity="0.4" d="M454.122 504.205H438.434L489.432 216.112H505.12L454.122 504.205Z" fill="white"/>
<path d="M547.47 258.811H497.608C496.984 258.789 496.381 258.641 495.871 258.384C495.36 258.126 494.963 257.77 494.725 257.357L491.57 252.509H553.508L550.337 257.357C550.104 257.77 549.71 258.126 549.202 258.384C548.694 258.642 548.093 258.79 547.47 258.811Z" fill="#26382B"/>
<path opacity="0.5" d="M547.47 258.811H497.608C496.984 258.789 496.381 258.641 495.871 258.384C495.36 258.126 494.963 257.77 494.725 257.357L491.57 252.509H553.508L550.337 257.357C550.104 257.77 549.71 258.126 549.202 258.384C548.694 258.642 548.093 258.79 547.47 258.811Z" fill="white"/>
<path d="M552.675 249.696H492.399C490.61 249.696 489.16 250.733 489.16 252.011V252.532C489.16 253.811 490.61 254.847 492.399 254.847H552.675C554.464 254.847 555.915 253.811 555.915 252.532V252.011C555.915 250.733 554.464 249.696 552.675 249.696Z" fill="#26382B"/>
<path opacity="0.2" d="M552.675 249.696H492.399C490.61 249.696 489.16 250.733 489.16 252.011V252.532C489.16 253.811 490.61 254.847 492.399 254.847H552.675C554.464 254.847 555.915 253.811 555.915 252.532V252.011C555.915 250.733 554.464 249.696 552.675 249.696Z" fill="white"/>
<path d="M538.378 299.994H488.448C487.824 299.971 487.223 299.82 486.715 299.56C486.207 299.3 485.814 298.942 485.582 298.528L482.41 293.74H544.416L541.244 298.528C541.012 298.942 540.619 299.3 540.111 299.56C539.603 299.82 539.002 299.971 538.378 299.994Z" fill="#26382B"/>
<path opacity="0.5" d="M538.378 299.994H488.448C487.824 299.971 487.223 299.82 486.715 299.56C486.207 299.3 485.814 298.942 485.582 298.528L482.41 293.74H544.416L541.244 298.528C541.012 298.942 540.619 299.3 540.111 299.56C539.603 299.82 539.002 299.971 538.378 299.994Z" fill="white"/>
<path d="M543.586 290.868H483.31C481.521 290.868 480.07 291.905 480.07 293.183V293.704C480.07 294.983 481.521 296.019 483.31 296.019H543.586C545.375 296.019 546.825 294.983 546.825 293.704V293.183C546.825 291.905 545.375 290.868 543.586 290.868Z" fill="#26382B"/>
<path opacity="0.2" d="M543.586 290.868H483.31C481.521 290.868 480.07 291.905 480.07 293.183V293.704C480.07 294.983 481.521 296.019 483.31 296.019H543.586C545.375 296.019 546.825 294.983 546.825 293.704V293.183C546.825 291.905 545.375 290.868 543.586 290.868Z" fill="white"/>
<path d="M529.271 354.499H479.409C478.786 354.479 478.184 354.331 477.676 354.073C477.167 353.816 476.774 353.458 476.543 353.044L473.371 348.196H535.309L532.154 353.044C531.92 353.459 531.524 353.817 531.012 354.075C530.501 354.333 529.897 354.48 529.271 354.499Z" fill="#26382B"/>
<path opacity="0.5" d="M529.271 354.499H479.409C478.786 354.479 478.184 354.331 477.676 354.073C477.167 353.816 476.774 353.458 476.543 353.044L473.371 348.196H535.309L532.154 353.044C531.92 353.459 531.524 353.817 531.012 354.075C530.501 354.333 529.897 354.48 529.271 354.499Z" fill="white"/>
<path d="M534.476 345.384H474.2C472.411 345.384 470.961 346.42 470.961 347.699V348.22C470.961 349.498 472.411 350.535 474.2 350.535H534.476C536.265 350.535 537.715 349.498 537.715 348.22V347.699C537.715 346.42 536.265 345.384 534.476 345.384Z" fill="#26382B"/>
<path opacity="0.2" d="M534.476 345.384H474.2C472.411 345.384 470.961 346.42 470.961 347.699V348.22C470.961 349.498 472.411 350.535 474.2 350.535H534.476C536.265 350.535 537.715 349.498 537.715 348.22V347.699C537.715 346.42 536.265 345.384 534.476 345.384Z" fill="white"/>
<path d="M520.181 409.014H470.319C469.694 408.994 469.091 408.846 468.58 408.589C468.069 408.331 467.672 407.974 467.436 407.56L464.281 402.712H526.219L523.048 407.56C522.816 407.974 522.423 408.331 521.915 408.589C521.406 408.847 520.804 408.995 520.181 409.014Z" fill="#26382B"/>
<path opacity="0.5" d="M520.181 409.014H470.319C469.694 408.994 469.091 408.846 468.58 408.589C468.069 408.331 467.672 407.974 467.436 407.56L464.281 402.712H526.219L523.048 407.56C522.816 407.974 522.423 408.331 521.915 408.589C521.406 408.847 520.804 408.995 520.181 409.014Z" fill="white"/>
<path d="M525.386 399.899H465.11C463.321 399.899 461.871 400.936 461.871 402.214V402.735C461.871 404.014 463.321 405.05 465.11 405.05H525.386C527.175 405.05 528.626 404.014 528.626 402.735V402.214C528.626 400.936 527.175 399.899 525.386 399.899Z" fill="#26382B"/>
<path opacity="0.2" d="M525.386 399.899H465.11C463.321 399.899 461.871 400.936 461.871 402.214V402.735C461.871 404.014 463.321 405.05 465.11 405.05H525.386C527.175 405.05 528.626 404.014 528.626 402.735V402.214C528.626 400.936 527.175 399.899 525.386 399.899Z" fill="white"/>
<path d="M511.089 463.53H461.21C460.587 463.509 459.986 463.361 459.478 463.103C458.97 462.845 458.576 462.489 458.343 462.076L455.172 457.228H517.127L513.955 462.076C513.724 462.489 513.331 462.847 512.822 463.105C512.314 463.363 511.712 463.51 511.089 463.53Z" fill="#26382B"/>
<path opacity="0.5" d="M511.089 463.53H461.21C460.587 463.509 459.986 463.361 459.478 463.103C458.97 462.845 458.576 462.489 458.343 462.076L455.172 457.228H517.127L513.955 462.076C513.724 462.489 513.331 462.847 512.822 463.105C512.314 463.363 511.712 463.51 511.089 463.53Z" fill="white"/>
<path d="M516.296 454.416H456.021C454.232 454.416 452.781 455.452 452.781 456.731V457.252C452.781 458.531 454.232 459.567 456.021 459.567H516.296C518.086 459.567 519.536 458.531 519.536 457.252V456.731C519.536 455.452 518.086 454.416 516.296 454.416Z" fill="#26382B"/>
<path opacity="0.2" d="M516.296 454.416H456.021C454.232 454.416 452.781 455.452 452.781 456.731V457.252C452.781 458.531 454.232 459.567 456.021 459.567H516.296C518.086 459.567 519.536 458.531 519.536 457.252V456.731C519.536 455.452 518.086 454.416 516.296 454.416Z" fill="white"/>
<path d="M514.668 504.205H498.98L549.996 216.112H565.684L514.668 504.205Z" fill="#26382B"/>
<path opacity="0.7" d="M514.668 504.205H498.98L549.996 216.112H565.684L514.668 504.205Z" fill="white"/>
<path d="M586.004 217.579H486.585C485.963 217.555 485.364 217.405 484.857 217.148C484.35 216.891 483.955 216.536 483.718 216.124L480.547 211.276H592.042L588.887 216.124C588.64 216.533 588.24 216.884 587.731 217.141C587.223 217.397 586.625 217.549 586.004 217.579Z" fill="#26382B"/>
<path opacity="0.5" d="M586.004 217.579H486.585C485.963 217.555 485.364 217.405 484.857 217.148C484.35 216.891 483.955 216.536 483.718 216.124L480.547 211.276H592.042L588.887 216.124C588.64 216.533 588.24 216.884 587.731 217.141C587.223 217.397 586.625 217.549 586.004 217.579Z" fill="white"/>
<path d="M591.208 208.465H481.392C479.603 208.465 478.152 209.501 478.152 210.78V211.301C478.152 212.579 479.603 213.616 481.392 213.616H591.208C592.997 213.616 594.447 212.579 594.447 211.301V210.78C594.447 209.501 592.997 208.465 591.208 208.465Z" fill="#26382B"/>
<path opacity="0.2" d="M591.208 208.465H481.392C479.603 208.465 478.152 209.501 478.152 210.78V211.301C478.152 212.579 479.603 213.616 481.392 213.616H591.208C592.997 213.616 594.447 212.579 594.447 211.301V210.78C594.447 209.501 592.997 208.465 591.208 208.465Z" fill="white"/>
<path d="M592.956 216.379L579.914 209.81L573.809 218.766C573.809 218.766 582.017 224.269 590.395 221.408L592.956 216.379Z" fill="#EBB376"/>
<path d="M568.654 208.804L566.348 216.258L573.81 218.766L579.916 209.81L568.654 208.804Z" fill="#EBB376"/>
<path d="M682.117 195.654C679.556 198.478 676.944 201.18 674.213 203.822C672.161 205.774 670.058 207.701 667.853 209.592C667.192 210.173 666.513 210.743 665.835 211.313C664.495 212.416 663.138 213.518 661.714 214.609C660.018 215.967 658.101 217.3 656.117 218.609L654.981 219.336C653.5 220.315 651.942 221.234 650.317 222.087C647.898 223.383 645.245 224.439 642.43 225.226C641.597 225.458 640.741 225.644 639.869 225.784C639.038 225.929 638.326 226.002 637.563 226.099C636.218 226.23 634.865 226.311 633.509 226.341C630.948 226.402 628.557 226.341 626.2 226.257C621.519 226.075 617.007 225.626 612.547 225.154C606.848 224.511 601.251 223.711 595.705 222.73C593.653 222.39 591.618 222.015 589.583 221.627L586.344 220.984C585.311 220.768 584.412 220.307 583.795 219.677C583.179 219.047 582.881 218.285 582.952 217.518C582.975 217.272 583.032 217.029 583.121 216.791C583.364 216.161 583.86 215.596 584.547 215.165C585.234 214.735 586.083 214.457 586.988 214.367C587.275 214.343 587.566 214.343 587.853 214.367H587.938H589.125C591.686 214.427 594.213 214.5 596.808 214.549C602.523 214.694 608.222 214.803 613.768 214.864C618.025 214.864 622.248 214.864 626.335 214.767C628.37 214.706 630.355 214.585 632.153 214.403C633.499 214.335 634.819 214.102 636.053 213.712C637.232 213.228 638.335 212.656 639.344 212.003C640.361 211.373 641.43 210.67 642.481 209.907C642.786 209.701 643.075 209.483 643.363 209.264C643.957 208.828 644.533 208.367 645.059 207.907C646.518 206.768 647.925 205.58 649.333 204.356C649.96 203.798 650.605 203.241 651.233 202.671C654.285 199.92 657.321 197.023 660.255 194.102C662.256 192.127 664.224 190.127 666.123 188.163L666.225 188.042C667.171 187.055 668.471 186.267 669.99 185.764L677.097 185.982L678.945 186.055C679.139 186.131 679.326 186.216 679.505 186.309C681.556 187.317 682.977 188.858 683.465 190.602C683.952 192.347 683.469 194.159 682.117 195.654Z" fill="#FFB573"/>
<path d="M677.689 203.702C674.485 207.008 670.893 210.114 666.953 212.985C665.902 213.761 664.782 214.561 663.561 215.409L661.662 214.646L645.024 207.956L643.48 207.338C643.48 207.338 644.566 206.126 646.177 204.441C648.195 202.259 651.062 199.144 653.724 196.211C655.793 193.909 657.727 191.715 658.999 190.151C660.413 188.419 662.278 186.897 664.494 185.667L669.955 185.8L677.061 186.018L678.91 186.091L683.642 186.261C685.83 189.873 685.355 195.605 677.689 203.702Z" fill="#03C365"/>
<path opacity="0.7" d="M677.689 203.702C674.485 207.008 670.893 210.114 666.953 212.985C665.902 213.761 664.782 214.561 663.561 215.409L661.662 214.646L645.024 207.956L643.48 207.338C643.48 207.338 644.566 206.126 646.177 204.441C648.195 202.259 651.062 199.144 653.724 196.211C655.793 193.909 657.727 191.715 658.999 190.151C660.413 188.419 662.278 186.897 664.494 185.667L669.955 185.8L677.061 186.018L678.91 186.091L683.642 186.261C685.83 189.873 685.355 195.605 677.689 203.702Z" fill="white"/>
<path d="M429.663 503.998C429.671 504.067 429.671 504.135 429.663 504.204C429.67 504.236 429.67 504.269 429.663 504.301C429.642 504.363 429.614 504.424 429.578 504.483C429.529 504.564 429.466 504.642 429.391 504.713C429.318 504.799 429.232 504.881 429.137 504.955C428.336 505.512 427.391 505.953 426.355 506.252L425.524 506.507C424.71 506.749 423.828 506.979 422.76 507.21C422.116 507.355 421.437 507.489 420.708 507.634C408.836 509.925 386.025 511.767 357.345 512.785L353.953 512.906L348.39 513.076L342.675 513.221L338.723 513.318C335.586 513.379 332.414 513.439 329.192 513.476H328.021H325.834H323.714C320.746 513.476 317.744 513.476 314.725 513.549H306.533C296.628 513.549 286.978 513.464 277.701 513.282L273.597 513.185C272.41 513.185 271.222 513.185 270.052 513.112L264.591 512.979L257.485 512.761L255.636 512.688L250.904 512.518C243.12 512.203 235.81 511.84 229.094 511.403C213.016 510.385 200.262 509.064 192.375 507.537L191.697 507.404L190.951 507.246C189.679 506.979 188.576 506.701 187.559 506.434C187.203 506.325 186.863 506.228 186.558 506.119C186.051 505.95 185.559 505.759 185.083 505.549C184.921 505.482 184.767 505.405 184.625 505.319L184.252 505.113L183.895 504.858C183.8 504.788 183.715 504.711 183.641 504.628C183.516 504.499 183.424 504.356 183.37 504.204V504.071C183.361 504.014 183.361 503.957 183.37 503.901C183.37 499.95 213.609 496.556 256.925 495.066L260.402 494.944L265.083 494.811L272.274 494.629L276.158 494.544L285.282 494.387H285.774H288.403H290.184C292.863 494.387 295.56 494.387 298.291 494.326H299.105C301.564 494.326 304.04 494.326 306.533 494.326C316.573 494.326 326.325 494.423 335.67 494.593L342.454 494.75L345.338 494.823H345.626L348.78 494.908L350.85 494.969L356.209 495.138L361.297 495.32C370.998 495.696 379.953 496.168 388.026 496.726C413.534 498.532 429.663 501.113 429.663 503.998Z" fill="#26382B"/>
<path opacity="0.4" d="M183.336 503.997C183.336 500.046 213.576 496.653 256.891 495.162L260.368 495.041L265.049 494.907C271.545 494.726 278.295 494.592 285.249 494.483H288.369H290.15C295.492 494.423 300.954 494.398 306.499 494.398C316.54 494.398 326.292 494.495 335.637 494.665L342.421 494.823C359.466 495.223 374.933 495.913 387.958 496.81C413.517 498.58 429.646 501.161 429.646 504.082C429.646 505.367 426.441 506.603 420.623 507.718C409.879 505.919 398.959 504.704 387.958 504.082C374.933 503.185 359.466 502.495 342.421 502.095L335.637 501.937C326.292 501.767 316.54 501.67 306.499 501.67C300.954 501.67 295.492 501.67 290.15 501.755H288.318H285.198C278.244 501.864 271.494 501.998 264.998 502.179L260.317 502.313L256.841 502.434C227.619 503.44 204.366 505.306 192.393 507.633C186.558 506.506 183.336 505.294 183.336 503.997Z" fill="white"/>
<path d="M296.137 499.526C295.204 500.326 294.339 501.016 293.474 501.683C293.033 502.01 292.609 502.338 292.151 502.665C291.337 503.259 290.54 503.877 289.709 504.41C289.166 504.798 288.607 505.174 288.013 505.549C285.139 507.449 282.097 509.214 278.905 510.834L278.363 511.1C277.888 511.343 277.396 511.573 276.887 511.815C275.819 512.324 274.716 512.821 273.495 513.282C272.308 513.282 271.121 513.282 269.951 513.209L264.489 513.076L257.383 512.858L255.535 512.785L250.803 512.615C243.018 512.3 235.708 511.937 228.992 511.5L231.638 510.894C238.422 509.319 245.206 507.84 251.82 506.289C253.516 505.889 255.094 505.501 256.603 505.077C257.904 504.769 259.154 504.363 260.334 503.865C261.081 503.55 261.861 503.198 262.641 502.822C263.048 502.628 263.472 502.422 263.896 502.192C265.117 501.574 266.338 500.883 267.542 500.168C269.985 498.738 272.376 497.162 274.75 495.526L276.022 494.629C276.785 494.108 277.532 493.587 278.261 493.042L281.653 490.618L281.857 490.46C282.879 489.7 284.134 489.119 285.522 488.761C286.911 488.404 288.395 488.28 289.862 488.4C292 488.574 293.993 489.263 295.512 490.353C297.031 491.443 297.987 492.87 298.223 494.399C298.372 495.31 298.265 496.233 297.906 497.113C297.548 497.994 296.946 498.814 296.137 499.526Z" fill="#FFB573"/>
<path d="M292.337 485.611C282.873 485.454 261.809 502.264 261.809 502.264L279.193 513.269C279.193 513.269 294.711 508.421 298.51 500.483C302.309 492.544 292.337 485.611 292.337 485.611Z" fill="#03C365"/>
<path opacity="0.7" d="M298.496 500.483C296.692 503.702 293.682 506.503 289.795 508.579C286.529 510.444 282.959 512.019 279.161 513.269L274.497 510.312L261.777 502.264C261.777 502.264 282.825 485.454 292.305 485.611C292.339 485.611 302.346 492.496 298.496 500.483Z" fill="white"/>
<path opacity="0.1" d="M289.845 508.579C286.579 510.444 283.008 512.019 279.211 513.27L274.547 510.312C277.024 505.131 281.455 500.538 287.352 497.041C289.421 499.804 290.099 505.683 289.845 508.579Z" fill="black"/>
<path d="M357.701 492.701C357.599 492.859 357.497 493.004 357.412 493.162C357.141 493.586 356.886 494.01 356.632 494.447C356.479 494.672 356.343 494.902 356.225 495.138C356.19 495.184 356.161 495.232 356.14 495.283C356.015 495.463 355.908 495.65 355.818 495.84C355.53 496.325 355.258 496.822 354.987 497.331C354.716 497.84 354.326 498.604 354.003 499.246C354.003 499.246 354.003 499.307 354.003 499.331C353.766 499.792 353.545 500.252 353.325 500.725C353.104 501.198 352.867 501.67 352.663 502.143C352.656 502.191 352.656 502.24 352.663 502.288C352.46 502.725 352.256 503.161 352.07 503.597C351.68 504.518 351.29 505.44 350.917 506.385L350.815 506.639C350.001 508.7 349.238 510.797 348.525 512.905C348.517 512.95 348.517 512.995 348.525 513.039L342.81 513.184L338.858 513.281C335.72 513.342 332.549 513.402 329.326 513.439H328.156H325.968H323.848C320.88 513.439 317.878 513.439 314.86 513.511H306.668C296.763 513.511 287.113 513.427 277.836 513.245L278.09 512.348C278.09 512.154 278.209 511.972 278.277 511.79C278.345 511.609 278.379 511.427 278.446 511.245C278.481 511.157 278.509 511.068 278.531 510.978C279.289 508.554 280.08 506.345 280.906 504.349C281.211 503.646 281.482 502.979 281.771 502.313C281.872 502.107 281.957 501.901 282.059 501.694C282.279 501.198 282.5 500.725 282.72 500.264L283.077 499.525C283.263 499.149 283.45 498.774 283.636 498.422C283.823 498.071 284.06 497.586 284.264 497.21L284.823 496.192L285.841 494.435C286.621 493.101 287.384 491.938 288.097 490.908C288.232 490.738 288.351 490.556 288.47 490.386L289.182 489.405L290.013 488.326C290.065 488.272 290.11 488.215 290.149 488.156C290.437 487.781 290.726 487.441 290.98 487.15L291.641 486.399L292.438 485.575C297.472 485.231 302.53 485.114 307.584 485.223C308.652 485.223 309.738 485.284 310.84 485.332C311.942 485.381 312.943 485.454 314.096 485.551C316.522 485.745 319.184 486.011 322.017 486.338L327.342 486.993C329.123 487.223 330.887 487.453 332.583 487.696L333.482 487.829C334.822 488.011 336.127 488.205 337.332 488.387C338.163 488.508 339.028 488.641 339.808 488.787C340.232 488.859 340.639 488.92 341.046 489.005L342.284 489.223C343.827 489.502 345.354 489.805 346.795 490.096L348.203 490.399L350.832 490.98L353.138 491.514C355.767 492.132 357.514 492.592 357.768 492.653L357.701 492.701Z" fill="#03C365"/>
<path opacity="0.7" d="M357.717 492.701C357.616 492.859 357.514 493.004 357.429 493.162C357.158 493.586 356.886 494.01 356.649 494.447C356.491 494.673 356.355 494.903 356.242 495.138C356.235 495.186 356.235 495.235 356.242 495.283C356.117 495.464 356.009 495.65 355.92 495.841C355.631 496.325 355.36 496.822 355.089 497.331C354.817 497.84 354.41 498.604 354.105 499.246C354.105 499.246 354.105 499.307 354.105 499.331C353.867 499.792 353.647 500.252 353.426 500.725C353.206 501.198 352.969 501.67 352.765 502.143V502.228C352.561 502.664 352.358 503.1 352.171 503.537C351.781 504.458 351.391 505.379 351.018 506.324L350.916 506.579C350.102 508.639 349.339 510.736 348.627 512.845C348.619 512.889 348.619 512.934 348.627 512.978L342.911 513.124L338.96 513.221C335.822 513.281 332.65 513.342 329.428 513.378H328.258H326.07H323.95C320.982 513.378 317.98 513.378 314.961 513.451H306.769C296.865 513.451 287.215 513.366 277.938 513.184L278.192 512.3C278.311 511.912 278.412 511.548 278.531 511.184C278.566 511.097 278.594 511.008 278.616 510.918C279.373 508.494 280.165 506.284 280.99 504.288C281.296 503.585 281.567 502.919 281.855 502.252C281.957 502.046 282.042 501.84 282.144 501.634C282.364 501.137 282.585 500.664 282.805 500.204L283.161 499.464C283.348 499.089 283.534 498.713 283.721 498.362C283.907 498.01 284.145 497.525 284.348 497.15L284.908 496.131L285.926 494.374C286.706 493.041 287.469 491.877 288.164 490.847C288.3 490.677 288.419 490.496 288.537 490.326L289.25 489.344L290.081 488.266C290.132 488.212 290.178 488.155 290.217 488.096L291.048 487.09L291.709 486.338L292.506 485.514C297.539 485.17 302.598 485.053 307.651 485.163C308.72 485.163 309.805 485.223 310.908 485.272C312.01 485.32 313.011 485.393 314.164 485.49C316.589 485.684 319.252 485.951 322.084 486.278L327.41 486.932C329.191 487.163 330.954 487.393 332.65 487.635L333.549 487.769C334.889 487.95 336.195 488.144 337.399 488.326C338.23 488.447 339.095 488.581 339.875 488.726C340.299 488.799 340.706 488.859 341.113 488.944L342.352 489.15C343.895 489.429 345.421 489.732 346.863 490.035L348.271 490.338L350.899 490.92L353.206 491.453C355.835 492.071 357.582 492.532 357.836 492.592L357.717 492.701Z" fill="white"/>
<path d="M327.039 470.801C327.039 470.801 327.565 483.696 329.277 485.611C330.99 487.526 337.181 488.411 337.181 488.411C337.181 488.411 322.307 493.695 315.353 492.702C308.4 491.708 305.059 485.224 305.059 485.224C305.059 485.224 309.909 485.357 311.096 484.884C312.284 484.412 310.164 475.867 310.164 475.867L327.039 470.801Z" fill="#EBB376"/>
<path opacity="0.2" d="M311.589 479.079L310.978 479.697C310.605 477.697 310.164 475.867 310.164 475.867L327.022 470.801C327.022 470.801 327.463 481.188 328.718 484.702C321.9 485.211 313.929 481.6 311.589 479.079Z" fill="black"/>
<path d="M321.27 449.143C325.883 450.864 332.481 456.415 325.256 458.269C318.031 460.124 313.35 446.198 321.27 449.143Z" fill="#26382B"/>
<path d="M300.767 470.595C304.306 473.683 308.161 476.58 312.3 479.261C315.275 481.062 318.926 482.196 322.798 482.521C336.366 483.733 345.151 473.407 339.673 464.887C339.039 463.91 338.331 462.96 337.553 462.038C331.6 455.033 320.152 447.676 308.823 450.076C305.968 450.681 303.374 451.794 301.283 453.311C299.193 454.827 297.675 456.697 296.87 458.746C296.065 460.796 296.001 462.958 296.682 465.03C297.364 467.102 298.769 469.016 300.767 470.595Z" fill="#EBB376"/>
<path d="M306.348 470.013L306.975 471.468C308.167 474.265 309.989 476.906 312.368 479.285C315.343 481.086 318.995 482.22 322.867 482.545C336.435 483.757 345.22 473.431 339.742 464.911C339.108 463.935 338.4 462.984 337.622 462.062C337.622 462.062 338.639 465.48 337.758 467.068C337.758 467.068 332.67 466.135 330.159 467.626C330.159 467.626 324.766 466.571 320.187 470.656C318.094 471.634 315.613 472.1 313.117 471.984C310.622 471.868 308.246 471.177 306.348 470.013Z" fill="#26382B"/>
<path opacity="0.5" d="M306.348 470.013L306.975 471.468C308.167 474.265 309.989 476.906 312.368 479.285C315.343 481.086 318.995 482.22 322.867 482.545C336.435 483.757 345.22 473.431 339.742 464.911C339.108 463.935 338.4 462.984 337.622 462.062C337.622 462.062 338.639 465.48 337.758 467.068C337.758 467.068 332.67 466.135 330.159 467.626C330.159 467.626 324.766 466.571 320.187 470.656C318.094 471.634 315.613 472.1 313.117 471.984C310.622 471.868 308.246 471.177 306.348 470.013Z" fill="white"/>
<path d="M286.622 466.062C280.466 462.365 286.3 457.02 292.745 455.154C293.441 454.957 294.034 454.61 294.441 454.16L302.09 462.559C301.394 462.79 300.699 463.02 300.038 463.202C300.038 463.202 308.976 468.85 308.111 474.473C295.628 476.994 283.586 472.401 286.622 466.062Z" fill="#26382B"/>
<path d="M303.462 478.739C304.772 479.375 306.246 479.818 307.798 480.04C309.351 480.263 310.95 480.262 312.502 480.036C312.801 479.995 313.096 479.939 313.384 479.866C315.961 478.133 308.296 472.037 307.939 471.722C307.119 471.543 306.255 471.494 305.406 471.578C304.556 471.661 303.743 471.876 303.021 472.206C302.292 472.59 301.707 473.097 301.318 473.682C300.929 474.266 300.748 474.911 300.792 475.557C300.835 476.204 301.102 476.833 301.568 477.388C302.034 477.943 302.684 478.407 303.462 478.739Z" fill="#EBB376"/>
<path d="M318.102 463.954C318.729 464.535 319.679 464.766 320.222 464.463C320.765 464.16 320.663 463.432 320.018 462.851C319.374 462.269 318.424 462.039 317.898 462.342C317.373 462.645 317.457 463.372 318.102 463.954Z" fill="#26382B"/>
<path d="M327.326 458.706C327.953 459.288 328.903 459.518 329.446 459.215C329.988 458.912 329.887 458.197 329.242 457.603C328.598 457.009 327.648 456.791 327.122 457.106C326.596 457.421 326.63 458.136 327.326 458.706Z" fill="#26382B"/>
<path d="M324.664 460.669C327.56 461.821 330.665 462.682 333.89 463.226C333.483 464.947 330.498 465.905 330.498 465.905L324.664 460.669Z" fill="#D58745"/>
<path d="M314.453 459.445C314.358 459.481 314.279 459.535 314.225 459.602C314.171 459.668 314.144 459.744 314.147 459.821C314.161 460.371 313.993 460.915 313.657 461.41C313.321 461.905 312.827 462.336 312.214 462.669C312.083 462.735 311.991 462.834 311.956 462.946C311.922 463.058 311.947 463.175 312.027 463.275C312.071 463.324 312.127 463.366 312.193 463.399C312.259 463.432 312.334 463.456 312.412 463.468C312.491 463.481 312.573 463.482 312.652 463.471C312.732 463.461 312.808 463.44 312.875 463.408C313.666 462.989 314.304 462.439 314.735 461.806C315.166 461.173 315.377 460.476 315.352 459.772C315.352 459.659 315.29 459.549 315.179 459.468C315.068 459.386 314.917 459.339 314.758 459.336C314.643 459.35 314.537 459.388 314.453 459.445Z" fill="#26382B"/>
<path d="M328.77 453.967C328.867 453.915 328.938 453.843 328.973 453.761C329.028 453.653 329.022 453.534 328.955 453.43C328.888 453.325 328.767 453.244 328.617 453.203C327.716 452.952 326.744 452.862 325.783 452.94C324.823 453.019 323.904 453.263 323.105 453.651C322.999 453.726 322.935 453.825 322.924 453.931C322.913 454.036 322.956 454.141 323.045 454.226C323.134 454.31 323.264 454.369 323.409 454.39C323.554 454.412 323.705 454.395 323.834 454.342C324.473 454.041 325.206 453.854 325.968 453.799C326.73 453.745 327.499 453.823 328.21 454.027C328.303 454.051 328.403 454.058 328.501 454.048C328.598 454.037 328.691 454.009 328.77 453.967Z" fill="#26382B"/>
<path d="M330.446 473.891C330.777 473.801 331.1 473.696 331.412 473.576L332.243 468.801C332.243 468.801 331.836 468.801 331.209 468.801C329.106 468.801 324.425 469.14 323.17 470.861C323.033 471.059 322.925 471.266 322.848 471.479C322.531 472.249 322.609 473.074 323.068 473.806C323.831 474.824 325.866 475.358 330.446 473.891Z" fill="#26382B"/>
<path d="M322.848 471.468L331.005 469.359L331.209 468.789C329.106 468.789 324.425 469.128 323.17 470.849C323.033 471.047 322.925 471.254 322.848 471.468Z" fill="white"/>
<path d="M330.448 473.892C329.023 472.195 325.224 473.068 323.07 473.819C323.834 474.825 325.869 475.358 330.448 473.892Z" fill="#DE5753"/>
<path d="M286.622 466.062C284.112 464.68 280.449 460.96 285.367 457.081C290.285 453.203 296.103 451.288 293.355 448.476C290.608 445.664 295.475 443.277 298.901 445.107C298.901 445.107 306.957 435.689 312.69 442.925C312.69 442.925 318.303 440.162 321.746 443.131C325.189 446.1 325.901 449.276 321.373 450.403C316.845 451.53 316.421 451.882 317.201 453.76C317.981 455.639 314.046 457.19 314.046 457.19C314.046 457.19 316.489 456.075 315.098 454.766C314.852 455.596 314.274 456.356 313.434 456.954C312.594 457.553 311.528 457.963 310.366 458.136C305.973 459.117 308.009 462.172 308.009 462.172C308.009 462.172 305.651 462.826 305.142 460.426C305.142 460.426 303.311 465.783 298.358 467.117C293.406 468.45 290.353 468.135 286.622 466.062Z" fill="#26382B"/>
<path opacity="0.1" d="M350.681 506.677C349.867 508.737 349.104 510.834 348.392 512.943C348.384 512.987 348.384 513.032 348.392 513.076L342.676 513.221L338.724 513.318C335.587 513.379 332.415 513.44 329.193 513.476H328.023H325.835H323.715C325.772 510.713 328.67 508.315 332.195 506.458C332.822 506.118 333.479 505.806 334.162 505.525C335.573 504.972 337.104 504.591 338.691 504.398C342.95 504.01 347.254 504.828 350.681 506.677Z" fill="black"/>
<path d="M362.059 502.664C361.973 503.851 361.453 505 360.549 505.997C358.395 508.421 356.207 510.676 353.918 512.906L348.355 513.075L342.639 513.221L338.688 513.318C335.55 513.378 332.379 513.439 329.156 513.475C329.343 513.33 329.495 513.184 329.665 513.039C332.718 510.288 335.754 507.391 338.688 504.47C339.519 503.658 340.384 502.834 341.13 502.046C342.3 500.834 343.42 499.719 344.522 498.568L344.641 498.447C345.845 497.203 347.591 496.28 349.607 495.822C351.624 495.363 353.796 495.396 355.783 495.913C356.547 496.112 357.271 496.381 357.937 496.713C359.278 497.372 360.36 498.264 361.081 499.306C361.803 500.347 362.139 501.504 362.059 502.664Z" fill="#FFB573"/>
<path d="M363.027 502.701C362.121 506.313 360.162 509.749 357.277 512.784L353.885 512.906L348.322 513.075L342.607 513.221L338.655 513.318C335.518 513.378 332.346 513.439 329.124 513.475H327.953H325.766C327.648 511.439 329.972 508.894 332.16 506.482C333.652 504.809 335.077 503.21 336.23 501.852L337.434 500.434C339.326 498.098 342.039 496.155 345.304 494.798C349.052 493.278 353.327 492.546 357.633 492.689C359.08 493.361 360.297 494.255 361.195 495.307C363.019 497.537 363.669 500.159 363.027 502.701Z" fill="#03C365"/>
<path opacity="0.7" d="M363.027 502.701C362.121 506.313 360.162 509.749 357.277 512.784L353.885 512.906L348.322 513.075L342.607 513.221L338.655 513.318C335.518 513.378 332.346 513.439 329.124 513.475H327.953H325.766C327.648 511.439 329.972 508.894 332.16 506.482C333.652 504.809 335.077 503.21 336.23 501.852L337.434 500.434C339.326 498.098 342.039 496.155 345.304 494.798C349.052 493.278 353.327 492.546 357.633 492.689C359.08 493.361 360.297 494.255 361.195 495.307C363.019 497.537 363.669 500.159 363.027 502.701Z" fill="white"/>
</svg>
