<svg width="505" height="505" viewBox="0 0 505 505" fill="none" xmlns="http://www.w3.org/2000/svg">
<path fill-rule="evenodd" clip-rule="evenodd" d="M0.893989 252.702C0.957989 113.358 113.838 0.606226 253.086 0.894226C392.59 1.18223 504.83 113.71 504.75 253.214C504.606 392.286 391.95 504.75 252.83 504.75C113.454 504.75 0.861989 392.094 0.893989 252.702ZM342.43 269.742C342.526 270.174 342.686 270.654 342.798 271.086C341.518 272.43 340.27 273.79 338.99 275.102C327.486 286.798 315.966 298.398 304.622 310.19C297.646 317.454 297.806 328.03 304.622 334.43C311.406 340.782 321.47 340.462 328.43 333.39C347.086 314.43 365.742 295.486 384.206 276.35C396.638 263.47 397.454 244.622 385.262 231.598C366.254 211.31 346.638 191.63 327.038 171.918C321.374 166.206 312.414 166.142 305.95 170.91C297.79 177.006 297.134 188.51 304.83 196.478C316.51 208.67 328.43 220.638 340.238 232.734C341.182 233.71 341.95 234.83 343.358 236.51C340.302 236.51 338.27 236.51 336.238 236.51C267.678 236.51 199.15 236.478 130.606 236.51C120.574 236.51 113.294 243.07 112.766 252.414C112.27 261.422 119.39 268.878 129.326 269.63C131.358 269.822 133.422 269.726 135.454 269.726C202.302 269.758 269.118 269.758 335.982 269.758C338.11 269.742 340.27 269.742 342.43 269.742Z" fill="#02BE62"/>
</svg>
