<svg width="504" height="504" viewBox="0 0 504 504" fill="none" xmlns="http://www.w3.org/2000/svg">
<path fill-rule="evenodd" clip-rule="evenodd" d="M503.856 252.048C503.792 391.392 390.912 504.144 251.664 503.856C112.16 503.568 -0.080061 391.04 -6.10352e-05 251.536C0.143939 112.464 112.8 -0.000244141 251.92 -0.000244141C391.296 -0.000244141 503.888 112.656 503.856 252.048ZM162.32 235.008C162.224 234.576 162.064 234.096 161.952 233.664C163.232 232.32 164.48 230.96 165.76 229.648C177.264 217.952 188.784 206.352 200.128 194.56C207.104 187.296 206.944 176.72 200.128 170.32C193.344 163.968 183.28 164.288 176.32 171.36C157.664 190.32 139.008 209.264 120.544 228.4C108.112 241.28 107.296 260.128 119.488 273.152C138.496 293.44 158.112 313.12 177.712 332.832C183.376 338.544 192.336 338.608 198.8 333.84C206.96 327.744 207.616 316.24 199.92 308.272C188.24 296.08 176.32 284.112 164.512 272.016C163.568 271.04 162.8 269.92 161.392 268.24C164.448 268.24 166.48 268.24 168.512 268.24C237.072 268.24 305.6 268.272 374.144 268.24C384.176 268.24 391.456 261.68 391.984 252.336C392.48 243.328 385.36 235.872 375.424 235.12C373.392 234.928 371.328 235.024 369.296 235.024C302.448 234.992 235.632 234.992 168.768 234.992C166.64 235.008 164.48 235.008 162.32 235.008Z" fill="#02BE62"/>
</svg>
