<svg width="82" height="65" viewBox="0 0 82 65" fill="none" xmlns="http://www.w3.org/2000/svg">
<path d="M62.8238 34.6453C60.7178 33.1503 58.2068 31.6553 55.4528 30.0953C58.2878 28.5353 60.7178 27.0403 62.8238 25.5453C67.8458 22.0353 69.7898 19.4354 68.6558 17.7454C67.5218 16.1204 63.7148 15.9904 57.3158 17.4854C54.3998 18.1354 51.1598 19.1104 47.7578 20.2804C46.7858 11.5704 44.3558 4.48535 40.6298 4.48535C36.9038 4.48535 34.3928 11.5704 33.4208 20.4104C30.0188 19.2404 26.7788 18.2654 23.8628 17.6154C17.4638 16.1204 13.6568 16.2504 12.5228 17.8754C10.7408 20.4754 16.9778 25.3504 25.7258 30.1604C16.8968 34.9704 10.7408 39.9104 12.5228 42.4454C13.0898 43.2904 14.4668 43.7453 16.4918 43.7453C18.3548 43.7453 20.7848 43.4203 23.7818 42.7053C26.6978 42.0553 29.9378 41.0803 33.3398 39.9104C34.3928 48.7504 36.8228 55.8354 40.6298 55.8354C44.3558 55.8354 46.8668 48.7504 47.8388 39.9104C51.2408 41.0803 54.4808 42.0553 57.3968 42.7053C60.3938 43.4203 62.8238 43.7453 64.6868 43.7453C66.7928 43.7453 68.0888 43.2904 68.6558 42.4454C69.7898 40.8204 67.8458 38.1553 62.8238 34.6453ZM57.8018 18.8504C60.8798 18.1354 63.1478 17.8754 64.6868 17.8754C66.2258 17.8754 66.9548 18.1354 67.1978 18.5254C67.6838 19.2404 66.5498 21.3204 61.6898 24.7004C59.5028 26.1954 56.9108 27.8203 53.9138 29.4453C52.1318 28.4703 50.1878 27.4953 48.1628 26.5854C48.0818 24.9604 48.0008 23.4004 47.8388 21.8404C51.4838 20.5403 54.8858 19.5004 57.8018 18.8504ZM44.2748 35.6203C45.0848 35.2953 45.8138 34.9053 46.6238 34.5804C46.5428 35.7503 46.4618 36.8554 46.3808 37.9604C45.0848 37.5054 43.7078 36.9853 42.4118 36.4003C43.0598 36.1404 43.6268 35.8803 44.2748 35.6203ZM43.5458 34.4503C42.5738 34.9053 41.6018 35.2954 40.6298 35.6854C39.6578 35.2954 38.6858 34.8403 37.7138 34.4503C36.6608 33.9953 35.6078 33.4753 34.5548 33.0203C34.5548 32.1103 34.4738 31.1353 34.4738 30.0953C34.4738 29.0553 34.4738 28.1453 34.5548 27.1703C35.6078 26.7153 36.5798 26.1953 37.7138 25.7403C38.6858 25.2853 39.6578 24.8954 40.6298 24.5054C41.6018 24.8954 42.5738 25.3503 43.5458 25.7403C44.5988 26.1953 45.6518 26.7153 46.7048 27.1703C46.7048 28.0803 46.7858 29.0553 46.7858 30.0953C46.7858 31.1353 46.7858 32.0453 46.7048 33.0203C45.6518 33.5403 44.5988 33.9953 43.5458 34.4503ZM38.8478 36.4003C37.4708 36.9203 36.1748 37.4403 34.8788 37.9604C34.7978 36.8554 34.7168 35.7503 34.6358 34.5804C35.3648 34.9053 36.1748 35.2953 36.9848 35.6203C37.5518 35.8803 38.1998 36.1404 38.8478 36.4003ZM32.8538 32.2403C31.3958 31.5253 29.9378 30.8103 28.6418 30.0953C29.9378 29.3803 31.3958 28.6653 32.8538 27.9503V32.2403ZM34.5548 25.7403C34.6358 24.5703 34.7168 23.4654 34.7978 22.3604C36.0938 22.8154 37.4708 23.3354 38.7668 23.9204C38.1188 24.1804 37.4708 24.4403 36.8228 24.7654C36.0938 25.0254 35.3648 25.3503 34.5548 25.7403ZM42.4118 23.8554C43.7888 23.3354 45.0848 22.8154 46.3808 22.2954C46.4618 23.4004 46.5428 24.5054 46.6238 25.6754C45.8948 25.3503 45.0848 24.9604 44.2748 24.6354C43.6268 24.3754 43.0598 24.1154 42.4118 23.8554ZM48.3248 28.0153C49.7828 28.7303 51.2408 29.4454 52.5368 30.1604C51.1598 30.8754 49.7828 31.5903 48.3248 32.3053V28.0153ZM40.6298 5.78535C42.6548 5.78535 45.2468 11.3754 46.2998 20.9953C44.4368 21.6454 42.5738 22.3603 40.6298 23.1404C38.6858 22.3603 36.8228 21.6454 34.9598 20.9953C36.0128 11.3754 38.6048 5.78535 40.6298 5.78535ZM13.8998 18.4604C14.3858 17.7454 17.1398 17.4204 23.2958 18.8504C26.2928 19.5654 29.6138 20.5404 33.1778 21.7754C33.0158 23.3354 32.9348 24.8953 32.8538 26.5203C30.9098 27.4303 28.9658 28.4053 27.1028 29.3804C17.6258 24.1804 13.0088 19.8254 13.8998 18.4604ZM23.3768 41.4703C17.2208 42.9003 14.4668 42.5754 13.9808 41.8604C13.0898 40.4953 17.7068 36.1403 27.2648 30.9403C29.1278 31.9153 30.9908 32.8904 33.0158 33.8004C33.0968 35.4254 33.1778 36.9853 33.3398 38.5453C29.6948 39.7803 26.3738 40.7553 23.3768 41.4703ZM40.6298 54.5354C38.6048 54.5354 36.0128 48.9454 34.9598 39.3253C36.8228 38.6754 38.6858 37.9604 40.6298 37.1804C42.5738 37.9604 44.4368 38.6754 46.2998 39.3253C45.1658 48.9454 42.5738 54.5354 40.6298 54.5354ZM67.2788 41.7954C66.7928 42.5103 64.0388 42.8354 57.8828 41.4053C54.8858 40.6903 51.5648 39.7154 48.0008 38.4804C48.1628 36.9203 48.2438 35.3603 48.3248 33.7353C50.3498 32.7604 52.2128 31.8503 54.0758 30.8753C57.0728 32.5003 59.6648 34.0603 61.8518 35.6203C66.6308 39.0653 67.7648 41.0804 67.2788 41.7954Z" fill="#310300"/>
<path d="M40.6331 32.8249C38.7701 32.8249 37.2311 31.5899 37.2311 30.0949C37.2311 28.5999 38.7701 27.3649 40.6331 27.3649C42.4961 27.3649 44.0351 28.5999 44.0351 30.0949C44.0351 31.5899 42.4961 32.8249 40.6331 32.8249ZM40.6331 28.7299C39.6611 28.7299 38.8511 29.3799 38.8511 30.1599C38.8511 30.9399 39.6611 31.5899 40.6331 31.5899C41.6051 31.5899 42.4151 30.9399 42.4151 30.1599C42.4151 29.3799 41.6051 28.7299 40.6331 28.7299ZM57.4001 12.4799C56.4281 12.4799 55.6181 11.8299 55.6181 11.0499C55.6181 10.2699 56.4281 9.61988 57.4001 9.61988C58.3721 9.61988 59.1821 10.2699 59.1821 11.0499C59.1821 11.8299 58.2911 12.4799 57.4001 12.4799ZM57.4001 10.9849C57.3191 10.9849 57.2381 11.0499 57.2381 11.1149C57.2381 11.2449 57.4811 11.2449 57.4811 11.1149C57.4811 10.9849 57.4001 10.9849 57.4001 10.9849ZM67.9301 11.6999C66.1481 11.6999 64.7711 10.5299 64.7711 9.16488C64.7711 7.79988 66.2291 6.62988 67.9301 6.62988C69.6311 6.62988 71.0891 7.79988 71.0891 9.16488C71.0891 10.5299 69.7121 11.6999 67.9301 11.6999ZM67.9301 7.92988C67.0391 7.92988 66.3911 8.51488 66.3911 9.16488C66.3911 9.81488 67.1201 10.3999 67.9301 10.3999C68.7401 10.3999 69.4691 9.81488 69.4691 9.16488C69.4691 8.51488 68.8211 7.92988 67.9301 7.92988ZM19.0871 53.6899C17.6291 53.6899 16.4141 52.7149 16.4141 51.5449C16.4141 50.3749 17.6291 49.3999 19.0871 49.3999C20.5451 49.3999 21.7601 50.3749 21.7601 51.5449C21.7601 52.7149 20.6261 53.6899 19.0871 53.6899ZM19.0871 50.6999C18.5201 50.6999 18.0341 51.0899 18.0341 51.5449C18.0341 51.9999 18.5201 52.3899 19.0871 52.3899C19.6541 52.3899 20.1401 51.9999 20.1401 51.5449C20.1401 51.0899 19.7351 50.6999 19.0871 50.6999Z" fill="#310300"/>
</svg>
