<svg width="35" height="35" viewBox="0 0 35 35" fill="none" xmlns="http://www.w3.org/2000/svg">
<path fill-rule="evenodd" clip-rule="evenodd" d="M9.47787 1.45801C5.04808 1.45801 1.45703 5.04905 1.45703 9.47884V25.5205C1.45703 29.9503 5.04808 33.5413 9.47787 33.5413H25.5195C29.9494 33.5413 33.5404 29.9503 33.5404 25.5205V9.47884C33.5404 5.04905 29.9494 1.45801 25.5195 1.45801H9.47787ZM17.4987 11.6663C14.277 11.6663 11.6654 14.278 11.6654 17.4997C11.6654 20.7213 14.277 23.333 17.4987 23.333C20.7203 23.333 23.332 20.7213 23.332 17.4997C23.332 14.278 20.7203 11.6663 17.4987 11.6663ZM8.7487 17.4997C8.7487 12.6672 12.6662 8.74968 17.4987 8.74968C22.3312 8.74968 26.2487 12.6672 26.2487 17.4997C26.2487 22.3322 22.3312 26.2497 17.4987 26.2497C12.6662 26.2497 8.7487 22.3322 8.7487 17.4997ZM26.2487 5.83301C24.6378 5.83301 23.332 7.13884 23.332 8.74968C23.332 10.3605 24.6378 11.6663 26.2487 11.6663C27.8596 11.6663 29.1654 10.3605 29.1654 8.74968C29.1654 7.13884 27.8596 5.83301 26.2487 5.83301Z" fill="white"/>
</svg>
