<svg width="31" height="30" viewBox="0 0 31 30" fill="none" xmlns="http://www.w3.org/2000/svg">
<path d="M23.3763 29.5828C17.4224 29.5751 11.7145 27.2065 7.50439 22.9964C3.2943 18.7863 0.925686 13.0785 0.917969 7.12452C0.917969 5.34536 1.62474 3.63906 2.88279 2.38101C4.14085 1.12295 5.84714 0.416182 7.6263 0.416182C8.00305 0.413313 8.37917 0.447505 8.74922 0.518266C9.10696 0.571204 9.45865 0.659125 9.79922 0.780766C10.0387 0.864808 10.2522 1.00992 10.4184 1.20175C10.5847 1.39357 10.698 1.62547 10.7471 1.87452L12.7451 10.6245C12.7989 10.862 12.7924 11.1092 12.7262 11.3436C12.66 11.578 12.5361 11.792 12.3659 11.9662C12.1763 12.1704 12.1617 12.1849 10.368 13.1183C11.8044 16.2695 14.3247 18.8002 17.4701 20.2495C18.418 18.4412 18.4326 18.4266 18.6367 18.237C18.8109 18.0668 19.0249 17.9429 19.2593 17.8767C19.4937 17.8105 19.7409 17.804 19.9784 17.8578L28.7284 19.8558C28.9695 19.9117 29.1923 20.0281 29.376 20.1939C29.5597 20.3597 29.6982 20.5696 29.7784 20.8037C29.9015 21.1498 29.9942 21.506 30.0555 21.8683C30.1142 22.2348 30.1434 22.6054 30.143 22.9766C30.1161 24.7482 29.3894 26.4371 28.1217 27.6748C26.8539 28.9125 25.148 29.5985 23.3763 29.5828Z" fill="white"/>
</svg>
